<?xml version="1.0" encoding="UTF-8"?>
<svg xmlns="http://www.w3.org/2000/svg" xmlns:xlink="http://www.w3.org/1999/xlink" width="1125pt" height="1124.99995pt" viewBox="0 0 1125 1124.99995" version="1.2">
<defs>
<clipPath id="clip1">
  <path d="M 139.5 163 L 936 163 L 936 1011 L 139.5 1011 Z M 139.5 163 "/>
</clipPath>
<clipPath id="clip2">
  <path d="M 817 112.5 L 985 112.5 L 985 281 L 817 281 Z M 817 112.5 "/>
</clipPath>
</defs>
<g id="surface1">
<g clip-path="url(#clip1)" clip-rule="nonzero">
<path style=" stroke:none;fill-rule:nonzero;fill:rgb(45.098877%,45.098877%,45.098877%);fill-opacity:1;" d="M 935.195312 291.15625 L 935.195312 854.628906 C 935.195312 883.382812 911.9375 906.636719 883.042969 906.636719 L 606.800781 906.636719 C 599.332031 906.636719 592.570312 910.863281 589.183594 917.488281 L 546.972656 1004.746094 C 543.027344 1012.496094 531.894531 1012.214844 528.089844 1004.320312 L 485.738281 917.488281 C 482.496094 910.867188 475.730469 906.640625 468.257812 906.640625 L 191.875 906.640625 C 163.125 906.640625 139.871094 883.382812 139.871094 854.632812 L 139.871094 215.46875 C 139.871094 186.71875 163.125 163.464844 191.875 163.464844 L 805.949219 163.464844 C 802.289062 173.75 800.3125 184.886719 800.3125 196.445312 C 800.3125 251.972656 845.554688 297.21875 901.085938 297.21875 C 913.066406 297.214844 924.484375 295.101562 935.195312 291.15625 Z M 935.195312 291.15625 "/>
</g>
<g clip-path="url(#clip2)" clip-rule="nonzero">
<path style=" stroke:none;fill-rule:nonzero;fill:rgb(45.098877%,45.098877%,45.098877%);fill-opacity:1;" d="M 984.945312 196.445312 C 984.945312 242.671875 947.460938 280.300781 901.089844 280.300781 C 854.71875 280.300781 817.230469 242.667969 817.230469 196.445312 C 817.230469 150.074219 854.71875 112.585938 901.089844 112.585938 C 947.460938 112.585938 984.945312 150.074219 984.945312 196.445312 Z M 984.945312 196.445312 "/>
</g>
<path style=" stroke:none;fill-rule:nonzero;fill:rgb(100%,100%,100%);fill-opacity:1;" d="M 932.226562 187.683594 L 909.285156 187.683594 L 909.285156 165.261719 C 909.285156 160.597656 905.5 156.8125 900.828125 156.8125 C 896.152344 156.8125 892.367188 160.597656 892.367188 165.261719 L 892.367188 187.683594 L 869.953125 187.683594 C 865.285156 187.683594 861.492188 191.46875 861.492188 196.136719 C 861.492188 200.800781 865.285156 204.585938 869.953125 204.585938 L 892.367188 204.585938 L 892.367188 227.542969 C 892.367188 232.207031 896.152344 235.996094 900.828125 235.996094 C 905.5 235.996094 909.285156 232.207031 909.285156 227.542969 L 909.285156 204.585938 L 932.226562 204.585938 C 936.898438 204.585938 940.683594 200.804688 940.683594 196.136719 C 940.683594 191.46875 936.898438 187.683594 932.226562 187.683594 Z M 932.226562 187.683594 "/>
<path style=" stroke:none;fill-rule:nonzero;fill:rgb(100%,100%,100%);fill-opacity:1;" d="M 713.007812 422.941406 L 395.972656 422.449219 L 379.652344 377.132812 C 376.871094 369.355469 369.453125 364.125 361.195312 364.125 L 317.324219 364.125 C 312.652344 364.125 308.867188 367.90625 308.867188 372.574219 C 308.867188 377.242188 312.652344 381.027344 317.324219 381.027344 L 361.195312 381.027344 C 362.324219 381.027344 363.34375 381.753906 363.734375 382.84375 L 443.683594 604.835938 L 411.128906 631.949219 C 402.101562 639.449219 396.921875 650.488281 396.921875 662.242188 C 396.921875 683.976562 414.605469 701.660156 436.34375 701.660156 L 453.570312 701.660156 C 446.003906 705.746094 440.804688 713.648438 440.804688 722.847656 C 440.804688 736.195312 451.621094 747.011719 464.96875 747.011719 C 478.316406 747.011719 489.136719 736.195312 489.136719 722.847656 C 489.136719 713.648438 483.933594 705.746094 476.371094 701.660156 L 615.972656 701.660156 C 608.410156 705.746094 603.203125 713.648438 603.203125 722.847656 C 603.203125 736.195312 614.023438 747.011719 627.371094 747.011719 C 640.722656 747.011719 651.535156 736.195312 651.535156 722.847656 C 651.535156 713.648438 646.339844 705.746094 638.769531 701.660156 L 671.675781 701.660156 C 676.351562 701.660156 680.136719 697.875 680.136719 693.210938 C 680.136719 688.546875 676.351562 684.761719 671.675781 684.761719 L 436.34375 684.761719 C 423.933594 684.761719 413.835938 674.660156 413.835938 662.242188 C 413.835938 655.542969 416.785156 649.234375 421.941406 644.941406 L 462.519531 611.167969 L 666.929688 611.167969 C 674.90625 611.167969 681.933594 605.9375 684.230469 598.300781 L 730.300781 446.1875 C 733.777344 434.601562 725.101562 422.941406 713.007812 422.941406 Z M 713.007812 422.941406 "/>
</g>
</svg>
