<?xml version="1.0" encoding="UTF-8" standalone="no"?>
<svg
   xmlns:dc="http://purl.org/dc/elements/1.1/"
   xmlns:cc="http://creativecommons.org/ns#"
   xmlns:rdf="http://www.w3.org/1999/02/22-rdf-syntax-ns#"
   xmlns:svg="http://www.w3.org/2000/svg"
   xmlns="http://www.w3.org/2000/svg"
   xmlns:sodipodi="http://sodipodi.sourceforge.net/DTD/sodipodi-0.dtd"
   xmlns:inkscape="http://www.inkscape.org/namespaces/inkscape"
   width="1125pt"
   height="1124.99995pt"
   viewBox="0 0 1125 1124.99995"
   version="1.2"
   id="svg18"
   sodipodi:docname="chatDúvidas.svg"
   inkscape:version="0.92.3 (2405546, 2018-03-11)">
  <metadata
     id="metadata22">
    <rdf:RDF>
      <cc:Work
         rdf:about="">
        <dc:format>image/svg+xml</dc:format>
        <dc:type
           rdf:resource="http://purl.org/dc/dcmitype/StillImage" />
        <dc:title></dc:title>
      </cc:Work>
    </rdf:RDF>
  </metadata>
  <sodipodi:namedview
     pagecolor="#ffffff"
     bordercolor="#666666"
     borderopacity="1"
     objecttolerance="10"
     gridtolerance="10"
     guidetolerance="10"
     inkscape:pageopacity="0"
     inkscape:pageshadow="2"
     inkscape:window-width="1600"
     inkscape:window-height="837"
     id="namedview20"
     showgrid="false"
     inkscape:zoom="0.15733333"
     inkscape:cx="750"
     inkscape:cy="750"
     inkscape:window-x="-8"
     inkscape:window-y="-8"
     inkscape:window-maximized="1"
     inkscape:current-layer="svg18" />
  <defs
     id="defs5">
    <clipPath
       id="clip1">
      <path
         d="M 112.5 170 L 1012.5 170 L 1012.5 948 L 112.5 948 Z M 112.5 170 "
         id="path2" />
    </clipPath>
  </defs>
  <g
     style="clip-rule:nonzero;fill:#ffffff"
     id="g9"
     clip-path="url(#clip1)">
    <path
       inkscape:connector-curvature="0"
       id="path7"
       d="M 993.03906,170.41797 H 132.3125 c -10.86719,0 -19.69141,8.80859 -19.69141,19.69922 v 610.91406 c 0,10.89062 8.82422,19.73828 19.70313,19.73828 h 217.74219 c -14.20704,35.45703 -24.46485,77.07813 -105.01563,124.33984 -16.14844,9.44532 197.66016,-1.83203 298.625,-124.33984 h 449.36328 c 10.89454,0 19.70704,-8.84766 19.70704,-19.73828 V 190.11719 c 0,-10.88672 -8.8125,-19.69922 -19.70704,-19.69922"
       style="fill:#ffffff;fill-opacity:1;fill-rule:nonzero;stroke:none" />
  </g>
  <path
     inkscape:connector-curvature="0"
     id="path11"
     d="m 805.32031,395.625 h -497.0625 c -14.59375,0 -26.4375,-11.80859 -26.4375,-26.43359 0,-14.58985 11.84375,-26.4336 26.4375,-26.4336 h 497.0625 c 14.59375,0 26.4375,11.84375 26.4375,26.4336 0,14.625 -11.84375,26.43359 -26.4375,26.43359"
     style="fill:#14d18c;fill-opacity:1;fill-rule:nonzero;stroke:none" />
  <path
     inkscape:connector-curvature="0"
     id="path13"
     d="m 805.32031,524.26562 h -497.0625 c -14.59375,0 -26.4375,-11.80859 -26.4375,-26.43359 0,-14.58984 11.84375,-26.43359 26.4375,-26.43359 h 497.0625 c 14.59375,0 26.4375,11.84375 26.4375,26.43359 0,14.625 -11.84375,26.43359 -26.4375,26.43359"
     style="fill:#14d18c;fill-opacity:1;fill-rule:nonzero;stroke:none" />
  <path
     inkscape:connector-curvature="0"
     id="path15"
     d="m 805.32031,652.90234 h -497.0625 c -14.59375,0 -26.4375,-11.80468 -26.4375,-26.42968 0,-14.59375 11.84375,-26.4336 26.4375,-26.4336 h 497.0625 c 14.59375,0 26.4375,11.83985 26.4375,26.4336 0,14.625 -11.84375,26.42968 -26.4375,26.42968"
     style="fill:#14d18c;fill-opacity:1;fill-rule:nonzero;stroke:none" />
</svg>
