<?xml version="1.0" encoding="UTF-8"?>
<svg xmlns="http://www.w3.org/2000/svg" xmlns:xlink="http://www.w3.org/1999/xlink" width="1125pt" height="1124.99995pt" viewBox="0 0 1125 1124.99995" version="1.2">
<defs>
<clipPath id="clip1">
  <path d="M 112.5 112.5 L 1012.5 112.5 L 1012.5 1012.5 L 112.5 1012.5 Z M 112.5 112.5 "/>
</clipPath>
</defs>
<g id="surface1">
<path style=" stroke:none;fill-rule:nonzero;fill:rgb(8.628845%,82.348633%,55.688477%);fill-opacity:1;" d="M 842.070312 341.835938 C 831.691406 331.453125 814.859375 331.46875 804.464844 341.835938 L 405.796875 740.503906 L 298.050781 632.746094 C 287.671875 622.363281 270.839844 622.363281 260.460938 632.746094 C 250.078125 643.109375 250.078125 659.953125 260.460938 670.335938 L 387 796.890625 C 392.191406 802.09375 399 804.691406 405.796875 804.691406 C 412.605469 804.691406 419.398438 802.09375 424.589844 796.890625 L 842.070312 379.441406 C 852.433594 369.058594 852.433594 352.214844 842.070312 341.835938 Z M 842.070312 341.835938 "/>
<g clip-path="url(#clip1)" clip-rule="nonzero">
<path style=" stroke:none;fill-rule:nonzero;fill:rgb(8.628845%,82.348633%,55.688477%);fill-opacity:1;" d="M 562.5 112.5 C 314.371094 112.5 112.5 314.371094 112.5 562.515625 C 112.5 810.644531 314.371094 1012.5 562.5 1012.5 C 810.628906 1012.5 1012.5 810.644531 1012.5 562.515625 C 1012.5 314.371094 810.628906 112.5 562.5 112.5 Z M 562.5 959.324219 C 343.679688 959.324219 165.675781 781.320312 165.675781 562.515625 C 165.675781 343.695312 343.679688 165.675781 562.5 165.675781 C 781.320312 165.675781 959.324219 343.695312 959.324219 562.515625 C 959.324219 781.320312 781.320312 959.324219 562.5 959.324219 Z M 562.5 959.324219 "/>
</g>
</g>
</svg>
