<?xml version="1.0" encoding="UTF-8"?>
<svg xmlns="http://www.w3.org/2000/svg" xmlns:xlink="http://www.w3.org/1999/xlink" width="1125pt" height="1124.99995pt" viewBox="0 0 1125 1124.99995" version="1.2">
<g id="surface1">
<path style=" stroke:none;fill-rule:nonzero;fill:rgb(32.548523%,33.729553%,36.859131%);fill-opacity:1;" d="M 824.078125 980.464844 C 822.5625 978.136719 820.699219 975.398438 818.429688 972.257812 C 818.371094 972.199219 818.3125 972.140625 818.257812 972.082031 C 816.042969 968.996094 813.484375 965.5625 810.515625 961.894531 C 810.339844 961.722656 810.164062 961.546875 810.050781 961.3125 C 807.136719 957.703125 803.878906 953.863281 800.210938 949.789062 C 799.980469 949.5 799.6875 949.265625 799.457031 948.972656 C 795.847656 944.957031 791.890625 940.765625 787.523438 936.460938 C 787.40625 936.34375 787.289062 936.226562 787.117188 936.050781 C 862.316406 938.960938 916.214844 961.722656 948.460938 980.464844 Z M 352.4375 980.464844 C 353.484375 979.125 354.820312 977.613281 355.984375 976.15625 C 357.5 974.292969 358.894531 972.546875 360.585938 970.570312 C 362.15625 968.765625 364.019531 966.785156 365.707031 964.921875 C 367.453125 963 369.023438 961.199219 370.886719 959.277344 C 372.691406 957.355469 374.84375 955.320312 376.824219 953.398438 C 378.917969 951.359375 380.839844 949.382812 383.050781 947.285156 C 385.207031 945.25 387.707031 943.210938 390.035156 941.234375 C 392.421875 939.195312 394.632812 937.160156 397.136719 935.0625 C 444.984375 896.007812 500.628906 876.160156 562.5 876.160156 C 629.4375 876.160156 688.75 895.484375 738.863281 933.609375 C 744.277344 937.742188 749.339844 941.929688 754.113281 946.0625 C 755.976562 947.695312 757.488281 949.265625 759.234375 950.894531 C 761.972656 953.339844 764.765625 955.902344 767.210938 958.289062 C 768.546875 959.683594 769.652344 960.90625 770.992188 962.304688 C 773.4375 964.863281 776 967.484375 778.210938 969.929688 C 779.082031 970.917969 779.722656 971.734375 780.597656 972.722656 C 782.867188 975.339844 785.195312 978.019531 787.117188 980.464844 C 787.117188 980.464844 787.117188 980.464844 787.175781 980.464844 Z M 351.15625 936.808594 C 347.195312 940.882812 343.53125 944.839844 340.210938 948.625 C 339.746094 949.148438 339.28125 949.613281 338.875 950.136719 C 335.554688 953.921875 332.527344 957.589844 329.851562 961.023438 C 329.5625 961.371094 329.210938 961.78125 328.921875 962.1875 C 326.242188 965.621094 323.796875 968.824219 321.761719 971.734375 C 321.585938 971.964844 321.410156 972.257812 321.238281 972.488281 C 319.082031 975.457031 317.28125 978.136719 315.824219 980.347656 C 315.824219 980.40625 315.765625 980.464844 315.765625 980.464844 L 175.433594 980.464844 C 208.433594 960.382812 264.078125 935.761719 338.988281 935.761719 C 343.296875 935.761719 347.605469 935.820312 351.910156 935.9375 C 351.621094 936.226562 351.445312 936.519531 351.15625 936.808594 Z M 830.710938 910.09375 L 830.710938 682.449219 L 800.910156 682.449219 L 800.910156 907.007812 C 791.304688 906.367188 781.410156 905.960938 771.109375 905.960938 C 764.707031 905.960938 758.480469 906.308594 752.308594 906.71875 C 701.667969 869.582031 642.941406 849.558594 577.402344 846.882812 L 577.402344 384.4375 L 547.597656 384.4375 L 547.597656 846.941406 C 486.714844 849.851562 431.539062 870.398438 383.285156 908.230469 C 368.265625 906.773438 353.65625 905.960938 338.988281 905.960938 C 333.867188 905.960938 329.035156 906.25 324.089844 906.484375 L 324.089844 682.449219 L 294.289062 682.449219 L 294.289062 908.753906 C 183.8125 922.316406 122.699219 981.976562 119.84375 984.828125 C 115.597656 989.078125 114.316406 995.480469 116.585938 1001.066406 C 118.914062 1006.65625 124.328125 1010.265625 130.378906 1010.265625 L 994.621094 1010.265625 C 1000.671875 1010.265625 1006.085938 1006.65625 1008.355469 1001.066406 C 1010.683594 995.480469 1009.402344 989.078125 1005.15625 984.828125 C 1002.417969 982.035156 944.503906 925.75 830.710938 910.09375 "/>
<path style=" stroke:none;fill-rule:nonzero;fill:rgb(32.548523%,33.729553%,36.859131%);fill-opacity:1;" d="M 294.289062 652.648438 L 324.089844 652.648438 L 324.089844 622.847656 L 294.289062 622.847656 L 294.289062 652.648438 "/>
<path style=" stroke:none;fill-rule:nonzero;fill:rgb(32.548523%,33.729553%,36.859131%);fill-opacity:1;" d="M 547.597656 201.320312 L 547.597656 270.9375 L 522.28125 258.246094 Z M 496.203125 278.5625 L 555.804688 308.363281 C 557.960938 309.410156 560.230469 309.933594 562.5 309.933594 C 565.234375 309.933594 567.914062 309.175781 570.359375 307.722656 C 574.722656 304.984375 577.402344 300.214844 577.402344 295.03125 L 577.402344 131.125 C 577.402344 124.082031 572.453125 118.03125 565.585938 116.574219 C 558.714844 115.0625 551.730469 118.613281 548.878906 125.074219 L 489.277344 259.179688 C 486.019531 266.453125 489.101562 275.011719 496.203125 278.5625 "/>
<path style=" stroke:none;fill-rule:nonzero;fill:rgb(32.548523%,33.729553%,36.859131%);fill-opacity:1;" d="M 661.855469 344.800781 L 697.59375 400.5 L 631.183594 362.203125 Z M 593.757812 375.007812 L 735.71875 456.960938 C 738.046875 458.300781 740.609375 458.941406 743.171875 458.941406 C 747.128906 458.941406 751.027344 457.367188 753.9375 454.34375 C 758.652344 449.335938 759.410156 441.769531 755.742188 436.007812 L 679.378906 316.800781 C 675.070312 310.109375 666.339844 307.953125 659.46875 311.855469 L 593.871094 349.105469 C 589.214844 351.785156 586.304688 356.671875 586.304688 362.027344 C 586.304688 367.382812 589.160156 372.332031 593.757812 375.007812 "/>
<path style=" stroke:none;fill-rule:nonzero;fill:rgb(32.548523%,33.729553%,36.859131%);fill-opacity:1;" d="M 491.3125 429.140625 L 437.414062 429.140625 L 500.628906 392.644531 Z M 517.332031 447.707031 L 538.226562 365.753906 C 539.683594 359.933594 537.589844 353.820312 532.816406 350.210938 C 527.984375 346.601562 521.523438 346.195312 516.34375 349.164062 L 374.378906 431.117188 C 368.558594 434.492188 365.707031 441.363281 367.453125 447.882812 C 369.199219 454.398438 375.078125 458.941406 381.828125 458.941406 L 502.898438 458.941406 C 509.707031 458.941406 515.644531 454.34375 517.332031 447.707031 "/>
<path style=" stroke:none;fill-rule:nonzero;fill:rgb(32.548523%,33.729553%,36.859131%);fill-opacity:1;" d="M 547.597656 354.636719 L 577.402344 354.636719 L 577.402344 324.835938 L 547.597656 324.835938 L 547.597656 354.636719 "/>
<path style=" stroke:none;fill-rule:nonzero;fill:rgb(32.548523%,33.729553%,36.859131%);fill-opacity:1;" d="M 204.882812 235.429688 C 208.433594 235.429688 211.695312 236.011719 214.546875 237.117188 C 219.492188 239.039062 225.199219 237.992188 229.332031 234.671875 C 233.464844 231.296875 235.558594 225.828125 234.683594 220.53125 C 234.683594 204.117188 248.074219 190.726562 264.488281 190.726562 C 274.324219 190.726562 283.578125 195.617188 289.164062 203.765625 C 293.125 209.585938 300.75 211.800781 307.269531 209.0625 C 312.621094 206.792969 318.269531 205.628906 324.089844 205.628906 C 348.769531 205.628906 368.792969 225.652344 368.792969 250.332031 C 368.792969 275.011719 348.769531 295.03125 324.089844 295.03125 L 204.882812 295.03125 C 201.449219 295.03125 198.25 294.449219 194.816406 293.171875 C 183 289.097656 175.082031 277.921875 175.082031 265.230469 C 175.082031 248.816406 188.46875 235.429688 204.882812 235.429688 Z M 184.570312 321.167969 C 190.914062 323.613281 197.726562 324.835938 204.882812 324.835938 L 324.089844 324.835938 C 365.183594 324.835938 398.59375 291.425781 398.59375 250.332031 C 398.59375 209.238281 365.183594 175.828125 324.089844 175.828125 C 318.035156 175.828125 312.097656 176.585938 306.277344 178.039062 C 295.21875 167.15625 280.261719 160.925781 264.488281 160.925781 C 236.78125 160.925781 213.382812 179.960938 206.746094 205.6875 C 173.800781 204.523438 145.28125 231.761719 145.28125 265.230469 C 145.28125 290.667969 161.289062 313.191406 184.570312 321.167969 "/>
<path style=" stroke:none;fill-rule:nonzero;fill:rgb(32.548523%,33.729553%,36.859131%);fill-opacity:1;" d="M 792.527344 271.75 C 796.71875 267.558594 802.367188 265.230469 808.359375 265.230469 L 832.632812 265.230469 C 839.441406 265.230469 845.378906 260.632812 847.066406 254 C 852.074219 234.265625 869.882812 220.53125 890.316406 220.53125 C 909.753906 220.53125 926.285156 232.984375 932.457031 250.332031 L 905.214844 250.332031 C 902.1875 250.332031 899.21875 250.621094 896.367188 251.203125 C 887.753906 252.890625 879.835938 257.140625 873.785156 263.371094 C 873.785156 263.371094 873.785156 263.425781 873.726562 263.425781 C 873.726562 263.425781 873.667969 263.484375 873.667969 263.484375 C 872.5625 264.535156 871.746094 265.8125 870.757812 266.976562 C 869.882812 268.027344 868.835938 269.015625 868.078125 270.179688 C 867.148438 271.578125 866.507812 273.089844 865.695312 274.542969 C 865.113281 275.652344 864.414062 276.699219 863.949219 277.804688 C 863.191406 279.667969 862.726562 281.585938 862.203125 283.507812 C 861.96875 284.441406 861.5625 285.253906 861.386719 286.1875 C 860.804688 289.039062 860.511719 292.007812 860.511719 295.03125 C 860.511719 300.214844 861.445312 305.21875 863.132812 309.933594 L 818.488281 309.933594 C 807.023438 309.933594 797.128906 306.441406 791.304688 300.273438 C 787.523438 296.3125 785.71875 291.425781 785.953125 286.300781 C 786.359375 280.773438 788.628906 275.59375 792.527344 271.75 Z M 949.917969 280.132812 L 964.816406 280.132812 C 973.023438 280.132812 979.71875 286.824219 979.71875 295.03125 C 979.71875 298.992188 978.207031 302.65625 975.179688 305.625 C 972.441406 308.421875 968.777344 309.933594 964.816406 309.933594 L 905.214844 309.933594 C 904.167969 309.933594 903.179688 309.816406 901.664062 309.410156 C 895.085938 307.898438 890.316406 301.902344 890.316406 295.03125 C 890.316406 291.074219 891.828125 287.40625 894.855469 284.441406 C 897.589844 281.644531 901.257812 280.132812 905.214844 280.132812 Z M 818.488281 339.734375 L 888.21875 339.734375 C 891.652344 339.734375 895.027344 339.328125 898.347656 338.863281 C 900.617188 339.210938 902.886719 339.734375 905.214844 339.734375 L 964.816406 339.734375 C 976.867188 339.734375 988.160156 335.019531 996.25 326.695312 C 1004.804688 318.375 1009.519531 307.140625 1009.519531 295.03125 C 1009.519531 270.355469 989.496094 250.332031 964.816406 250.332031 L 963.304688 250.332031 C 956.378906 216.339844 926.285156 190.726562 890.316406 190.726562 C 860.28125 190.726562 833.621094 208.597656 822.039062 235.429688 L 808.359375 235.429688 C 794.390625 235.429688 781.296875 240.84375 771.457031 250.679688 C 762.4375 259.703125 757.023438 271.632812 756.207031 284.496094 C 755.511719 297.945312 760.28125 310.808594 769.652344 320.761719 C 781.238281 332.984375 798.582031 339.734375 818.488281 339.734375 "/>
<path style=" stroke:none;fill-rule:nonzero;fill:rgb(32.548523%,33.729553%,36.859131%);fill-opacity:1;" d="M 294.289062 568.949219 L 268.96875 556.261719 L 294.289062 499.335938 Z M 324.089844 429.140625 C 324.089844 422.097656 319.140625 416.042969 312.273438 414.585938 C 305.464844 413.074219 298.421875 416.625 295.570312 423.085938 L 235.964844 557.191406 C 232.707031 564.46875 235.792969 573.023438 242.890625 576.574219 L 302.496094 606.375 C 304.648438 607.421875 306.917969 607.945312 309.1875 607.945312 C 311.925781 607.945312 314.601562 607.191406 317.046875 605.734375 C 321.410156 603 324.089844 598.226562 324.089844 593.046875 L 324.089844 429.140625 "/>
<path style=" stroke:none;fill-rule:nonzero;fill:rgb(32.548523%,33.729553%,36.859131%);fill-opacity:1;" d="M 377.871094 660.214844 L 408.546875 642.8125 L 444.285156 698.515625 Z M 426.066406 614.816406 C 421.757812 608.121094 413.027344 605.96875 406.160156 609.867188 L 340.5625 647.121094 C 335.90625 649.796875 332.996094 654.6875 332.996094 660.042969 C 332.996094 665.394531 335.847656 670.34375 340.445312 673.019531 L 482.410156 754.972656 C 484.738281 756.3125 487.296875 756.953125 489.859375 756.953125 C 493.816406 756.953125 497.71875 755.382812 500.628906 752.355469 C 505.34375 747.351562 506.097656 739.78125 502.433594 734.019531 L 426.066406 614.816406 "/>
<path style=" stroke:none;fill-rule:nonzero;fill:rgb(32.548523%,33.729553%,36.859131%);fill-opacity:1;" d="M 247.316406 690.65625 L 238.003906 727.152344 L 184.105469 727.152344 Z M 128.519531 756.953125 L 249.585938 756.953125 C 256.394531 756.953125 262.332031 752.355469 264.019531 745.71875 L 284.917969 663.765625 C 286.371094 657.945312 284.277344 651.835938 279.503906 648.226562 C 274.671875 644.617188 268.210938 644.210938 263.03125 647.175781 L 121.066406 729.132812 C 115.246094 732.507812 112.394531 739.375 114.140625 745.894531 C 115.886719 752.414062 121.765625 756.953125 128.519531 756.953125 "/>
<path style=" stroke:none;fill-rule:nonzero;fill:rgb(32.548523%,33.729553%,36.859131%);fill-opacity:1;" d="M 800.910156 652.648438 L 830.710938 652.648438 L 830.710938 622.847656 L 800.910156 622.847656 L 800.910156 652.648438 "/>
<path style=" stroke:none;fill-rule:nonzero;fill:rgb(32.548523%,33.729553%,36.859131%);fill-opacity:1;" d="M 800.910156 568.949219 L 775.589844 556.261719 L 800.910156 499.335938 Z M 830.710938 429.140625 C 830.710938 422.097656 825.765625 416.042969 818.894531 414.585938 C 812.027344 413.074219 805.042969 416.625 802.191406 423.085938 L 742.589844 557.191406 C 739.328125 564.46875 742.414062 573.023438 749.515625 576.574219 L 809.117188 606.375 C 811.269531 607.421875 813.542969 607.945312 815.8125 607.945312 C 818.546875 607.945312 821.222656 607.191406 823.667969 605.734375 C 828.035156 603 830.710938 598.226562 830.710938 593.046875 L 830.710938 429.140625 "/>
<path style=" stroke:none;fill-rule:nonzero;fill:rgb(32.548523%,33.729553%,36.859131%);fill-opacity:1;" d="M 884.492188 660.214844 L 915.167969 642.8125 L 950.90625 698.515625 Z M 932.6875 614.816406 C 928.382812 608.121094 919.648438 605.96875 912.78125 609.867188 L 847.183594 647.121094 C 842.527344 649.796875 839.617188 654.6875 839.617188 660.042969 C 839.617188 665.394531 842.46875 670.34375 847.066406 673.019531 L 989.03125 754.972656 C 991.359375 756.3125 993.921875 756.953125 996.480469 756.953125 C 1000.441406 756.953125 1004.339844 755.382812 1007.25 752.355469 C 1011.964844 747.351562 1012.722656 739.78125 1009.054688 734.019531 L 932.6875 614.816406 "/>
<path style=" stroke:none;fill-rule:nonzero;fill:rgb(32.548523%,33.729553%,36.859131%);fill-opacity:1;" d="M 744.625 727.152344 L 690.726562 727.152344 L 753.9375 690.65625 Z M 769.652344 647.175781 L 627.691406 729.132812 C 621.871094 732.507812 619.019531 739.375 620.765625 745.894531 C 622.511719 752.414062 628.390625 756.953125 635.140625 756.953125 L 756.207031 756.953125 C 763.019531 756.953125 768.957031 752.355469 770.644531 745.71875 L 791.539062 663.765625 C 792.996094 657.945312 790.898438 651.835938 786.125 648.226562 C 781.296875 644.617188 774.835938 644.210938 769.652344 647.175781 "/>
</g>
</svg>
