<?xml version="1.0" encoding="UTF-8"?>
<svg xmlns="http://www.w3.org/2000/svg" xmlns:xlink="http://www.w3.org/1999/xlink" width="1125pt" height="1124.99995pt" viewBox="0 0 1125 1124.99995" version="1.2">
<defs>
<clipPath id="clip1">
  <path d="M 112.5 259.773438 L 1012.5 259.773438 L 1012.5 865 L 112.5 865 Z M 112.5 259.773438 "/>
</clipPath>
</defs>
<g id="surface1">
<g clip-path="url(#clip1)" clip-rule="nonzero">
<path style=" stroke:none;fill-rule:nonzero;fill:rgb(45.098877%,45.098877%,45.098877%);fill-opacity:1;" d="M 896.070312 259.613281 L 228.929688 259.613281 C 164.855469 259.613281 112.933594 311.539062 112.933594 375.589844 L 112.933594 607.582031 C 112.933594 671.597656 164.855469 723.519531 228.929688 723.519531 L 671.019531 723.519531 L 792.347656 864.785156 L 799.007812 723.519531 L 896.070312 723.519531 C 960.144531 723.519531 1012.046875 671.597656 1012.046875 607.582031 L 1012.046875 375.589844 C 1012.046875 311.539062 960.144531 259.613281 896.070312 259.613281 "/>
</g>
<path style=" stroke:none;fill-rule:nonzero;fill:rgb(100%,100%,100%);fill-opacity:1;" d="M 404.378906 491.566406 C 404.378906 533.503906 370.359375 567.472656 328.449219 567.472656 C 286.5 567.472656 252.480469 533.503906 252.480469 491.566406 C 252.480469 449.632812 286.5 415.664062 328.449219 415.664062 C 370.359375 415.664062 404.378906 449.632812 404.378906 491.566406 "/>
<path style=" stroke:none;fill-rule:nonzero;fill:rgb(100%,100%,100%);fill-opacity:1;" d="M 872.519531 491.566406 C 872.519531 533.503906 838.5 567.472656 796.550781 567.472656 C 754.601562 567.472656 720.621094 533.503906 720.621094 491.566406 C 720.621094 449.632812 754.601562 415.664062 796.550781 415.664062 C 838.5 415.664062 872.519531 449.632812 872.519531 491.566406 "/>
<path style=" stroke:none;fill-rule:nonzero;fill:rgb(100%,100%,100%);fill-opacity:1;" d="M 638.429688 491.566406 C 638.429688 533.503906 604.449219 567.472656 562.5 567.472656 C 520.550781 567.472656 486.570312 533.503906 486.570312 491.566406 C 486.570312 449.632812 520.550781 415.664062 562.5 415.664062 C 604.449219 415.664062 638.429688 449.632812 638.429688 491.566406 "/>
</g>
</svg>
