<?xml version="1.0" encoding="UTF-8"?>
<svg xmlns="http://www.w3.org/2000/svg" xmlns:xlink="http://www.w3.org/1999/xlink" width="1125pt" height="1124.99995pt" viewBox="0 0 1125 1124.99995" version="1.2">
<defs>
<clipPath id="clip1">
  <path d="M 878 376.773438 L 1012 376.773438 L 1012 510 L 878 510 Z M 878 376.773438 "/>
</clipPath>
</defs>
<g id="surface1">
<path style=" stroke:none;fill-rule:nonzero;fill:rgb(8.628845%,82.348633%,55.688477%);fill-opacity:1;" d="M 892.8125 478.644531 C 845.570312 520.277344 793.976562 566.261719 746.726562 607.886719 C 746.753906 607.929688 746.773438 607.96875 746.800781 608.007812 C 747.28125 608.667969 747.738281 609.386719 748.140625 610.195312 C 748.605469 610.988281 748.960938 611.78125 749.257812 612.570312 C 752.761719 620.320312 754.8125 628.664062 755.410156 637.09375 C 806.65625 591.929688 862.261719 542.421875 913.503906 497.261719 C 905.433594 492.492188 898.328125 486.136719 892.8125 478.644531 Z M 892.8125 478.644531 "/>
<path style=" stroke:none;fill-rule:nonzero;fill:rgb(8.628845%,82.348633%,55.688477%);fill-opacity:1;" d="M 506.515625 478.890625 C 505.789062 489.175781 502.609375 499.0625 497.515625 507.8125 C 540.457031 545.648438 587.753906 587.832031 630.703125 625.671875 C 632.925781 616.277344 637.117188 607.394531 643.21875 599.851562 C 599.097656 560.980469 550.632812 517.761719 506.515625 478.890625 Z M 506.515625 478.890625 "/>
<path style=" stroke:none;fill-rule:nonzero;fill:rgb(8.628845%,82.348633%,55.688477%);fill-opacity:1;" d="M 220.777344 627.832031 C 209.980469 619.652344 196.46875 614.613281 181.101562 613.785156 C 143.742188 611.773438 116.746094 645.558594 114.890625 679.957031 C 112.882812 717.308594 146.691406 744.285156 181.101562 746.132812 C 216.964844 748.066406 243.207031 717 246.902344 684.089844 C 247.207031 682.828125 247.394531 681.492188 247.3125 679.960938 C 247.394531 678.464844 247.210938 677.144531 246.921875 675.902344 C 245.882812 665.96875 243.117188 656.832031 238.789062 648.828125 C 289.066406 604.535156 341.511719 558.0625 391.78125 513.769531 C 385.894531 506.113281 381.695312 497.183594 379.859375 487.417969 C 327.558594 533.492188 273.078125 581.753906 220.777344 627.832031 Z M 142.609375 679.953125 C 139.933594 630.332031 216.933594 630.589844 219.597656 679.953125 C 216.925781 729.546875 145.28125 729.546875 142.609375 679.953125 Z M 142.609375 679.953125 "/>
<path style=" stroke:none;fill-rule:nonzero;fill:rgb(8.628845%,82.348633%,55.688477%);fill-opacity:1;" d="M 508.371094 468.570312 C 508.304688 468.050781 508.21875 467.542969 508.117188 467.039062 C 508.082031 466.339844 508.015625 465.625 507.878906 464.886719 C 501.605469 431.589844 470.757812 408.128906 436.976562 410.964844 C 402.617188 413.847656 377.605469 443.097656 376.664062 476.808594 C 376.542969 481.195312 376.914062 485.460938 377.6875 489.585938 C 379.523438 499.347656 383.722656 508.28125 389.609375 515.933594 C 402.644531 532.882812 423.925781 543.550781 446.046875 542.890625 C 469.097656 542.203125 488.773438 528.734375 499.691406 509.984375 C 504.789062 501.242188 507.964844 491.351562 508.695312 481.0625 C 508.984375 476.941406 508.902344 472.765625 508.371094 468.570312 Z M 446.042969 515.191406 C 423.109375 517.246094 405.496094 498.777344 404.378906 476.8125 C 403.378906 457.035156 419.699219 442.144531 437.78125 438.574219 C 458.980469 434.394531 476.53125 451.652344 480.835938 470.769531 C 482.617188 492.710938 469.371094 513.09375 446.042969 515.191406 Z M 446.042969 515.191406 "/>
<path style=" stroke:none;fill-rule:nonzero;fill:rgb(8.628845%,82.348633%,55.688477%);fill-opacity:1;" d="M 750.316406 608.019531 C 749.910156 607.207031 749.457031 606.488281 748.976562 605.828125 C 748.949219 605.785156 748.929688 605.75 748.90625 605.710938 C 729.675781 575.347656 691.484375 565.582031 659.523438 582.457031 C 652.132812 586.363281 645.96875 591.582031 641.042969 597.675781 C 634.941406 605.21875 630.75 614.101562 628.523438 623.496094 C 624.539062 640.308594 626.8125 658.769531 635.640625 674.136719 C 653.132812 704.617188 691.554688 712.832031 722.148438 698.996094 C 747.582031 687.5 759.457031 660.867188 757.597656 634.914062 C 757 626.488281 754.945312 618.136719 751.441406 610.394531 C 751.136719 609.605469 750.78125 608.8125 750.316406 608.019531 Z M 710.695312 673.753906 C 694.246094 683.496094 672.023438 677.585938 661.078125 662.496094 C 648.386719 645 653.203125 620.34375 670.714844 608.085938 C 689.90625 594.644531 715.167969 602.714844 726.386719 621.996094 C 735.984375 641.1875 728.828125 663.003906 710.695312 673.753906 Z M 710.695312 673.753906 "/>
<g clip-path="url(#clip1)" clip-rule="nonzero">
<path style=" stroke:none;fill-rule:nonzero;fill:rgb(8.628845%,82.348633%,55.688477%);fill-opacity:1;" d="M 1010.984375 439.984375 C 1010.011719 405.214844 980.65625 378.949219 947.152344 376.898438 C 946.421875 376.808594 945.664062 376.757812 944.859375 376.777344 C 944.0625 376.757812 943.3125 376.808594 942.589844 376.894531 C 907.773438 378.933594 881.640625 405.21875 878.71875 439.984375 C 877.445312 455.195312 882.175781 469.335938 890.632812 480.816406 C 896.144531 488.3125 903.257812 494.664062 911.332031 499.433594 C 923.070312 506.375 936.855469 509.96875 950.753906 508.800781 C 985.988281 505.84375 1011.957031 474.777344 1010.984375 439.984375 Z M 949.953125 481.191406 C 925.28125 486.058594 905.8125 462.625 906.445312 439.984375 C 907.011719 419.734375 925.734375 405.011719 944.863281 404.480469 C 964.84375 405.039062 981.570312 419.746094 983.265625 439.984375 C 985.03125 460.960938 969.683594 477.296875 949.953125 481.191406 Z M 949.953125 481.191406 "/>
</g>
</g>
</svg>
