<?xml version="1.0" encoding="UTF-8"?>
<svg xmlns="http://www.w3.org/2000/svg" xmlns:xlink="http://www.w3.org/1999/xlink" width="1125pt" height="1124.99995pt" viewBox="0 0 1125 1124.99995" version="1.2">
<defs>
<clipPath id="clip1">
  <path d="M 112.5 157.5 L 1012.5 157.5 L 1012.5 967.5 L 112.5 967.5 Z M 112.5 157.5 "/>
</clipPath>
</defs>
<g id="surface1">
<g clip-path="url(#clip1)" clip-rule="nonzero">
<path style=" stroke:none;fill-rule:nonzero;fill:rgb(100%,100%,100%);fill-opacity:1;" d="M 760.5 247.5 C 850.5 247.5 922.5 319.5 922.5 409.5 C 922.5 499.5 747 697.5 562.5 850.5 C 378 693 202.5 495 202.5 409.5 C 202.5 319.5 274.5 247.5 364.5 247.5 C 472.5 247.5 562.5 382.5 562.5 382.5 C 562.5 382.5 648 247.5 760.5 247.5 M 760.5 157.5 C 679.5 157.5 607.5 198 562.5 261 C 517.5 198 445.5 157.5 364.5 157.5 C 225 157.5 112.5 270 112.5 409.5 C 112.5 607.5 562.5 967.5 562.5 967.5 C 562.5 967.5 1012.5 607.5 1012.5 409.5 C 1012.5 270 900 157.5 760.5 157.5 Z M 760.5 157.5 "/>
</g>
</g>
</svg>
