<?xml version="1.0" encoding="UTF-8"?>
<svg xmlns="http://www.w3.org/2000/svg" xmlns:xlink="http://www.w3.org/1999/xlink" width="1125pt" height="1124.99995pt" viewBox="0 0 1125 1124.99995" version="1.2">
<defs>
<clipPath id="clip1">
  <path d="M 112.5 112.5 L 1012.5 112.5 L 1012.5 1012.5 L 112.5 1012.5 Z M 112.5 112.5 "/>
</clipPath>
</defs>
<g id="surface1">
<g clip-path="url(#clip1)" clip-rule="nonzero">
<path style=" stroke:none;fill-rule:nonzero;fill:rgb(8.628845%,82.348633%,55.688477%);fill-opacity:1;" d="M 562.5 112.5 C 313.960938 112.5 112.5 313.960938 112.5 562.5 C 112.5 811.039062 313.960938 1012.5 562.5 1012.5 C 811.039062 1012.5 1012.5 811.039062 1012.5 562.5 C 1012.5 313.960938 811.039062 112.5 562.5 112.5 Z M 562.5 977.882812 C 333.449219 977.882812 147.117188 791.550781 147.117188 562.5 C 147.117188 333.449219 333.449219 147.117188 562.5 147.117188 C 791.550781 147.117188 977.882812 333.449219 977.882812 562.5 C 977.882812 791.550781 791.550781 977.882812 562.5 977.882812 Z M 562.5 977.882812 "/>
</g>
<path style=" stroke:none;fill-rule:nonzero;fill:rgb(8.628845%,82.348633%,55.688477%);fill-opacity:1;" d="M 682.128906 325.59375 C 668.285156 313.164062 651.980469 303.230469 633.601562 296.132812 C 590.121094 279.554688 538.683594 283.363281 501.679688 300.359375 C 479.976562 310.292969 461.699219 324.277344 447.371094 341.863281 C 433.417969 358.960938 422.929688 379.039062 416.113281 401.539062 C 411.921875 415.382812 409.464844 432.105469 408.21875 458.652344 L 477.554688 458.652344 C 478.488281 441 480.046875 429.300781 482.398438 421.546875 C 486.554688 407.769531 492.820312 395.722656 501.023438 385.648438 C 508.742188 376.199219 518.398438 368.894531 530.585938 363.253906 C 551.144531 353.871094 582.785156 350.828125 608.78125 360.796875 C 619.234375 364.8125 628.375 370.28125 635.917969 377.132812 C 643.222656 383.710938 648.933594 391.535156 653.332031 401.089844 C 657.65625 410.503906 659.769531 420.714844 659.769531 432.347656 C 659.769531 447.886719 656.238281 461.492188 649.003906 473.988281 C 640.59375 488.597656 629.722656 502.128906 617.089844 513.867188 C 598.707031 530.515625 582.992188 545.640625 570.460938 558.761719 L 567.761719 561.53125 C 553.8125 575.621094 527.882812 601.753906 527.882812 666.347656 L 527.882812 700.960938 L 597.117188 700.960938 L 597.117188 666.347656 C 597.117188 630.242188 607.1875 620.101562 616.878906 610.304688 L 620.480469 606.601562 C 632.144531 594.414062 646.546875 580.535156 663.855469 564.855469 C 681.886719 548.101562 697.015625 529.164062 708.886719 508.636719 C 722.214844 485.652344 728.929688 460.003906 728.929688 432.347656 C 728.929688 410.816406 724.636719 390.601562 716.191406 372.148438 C 707.851562 354.046875 696.390625 338.367188 682.128906 325.59375 Z M 682.128906 325.59375 "/>
<path style=" stroke:none;fill-rule:nonzero;fill:rgb(8.628845%,82.348633%,55.688477%);fill-opacity:1;" d="M 527.882812 770.191406 L 597.117188 770.191406 L 597.117188 839.421875 L 527.882812 839.421875 Z M 527.882812 770.191406 "/>
</g>
</svg>
