<?xml version="1.0" encoding="UTF-8"?>
<svg xmlns="http://www.w3.org/2000/svg" xmlns:xlink="http://www.w3.org/1999/xlink" width="1125pt" height="1124.99995pt" viewBox="0 0 1125 1124.99995" version="1.2">
<defs>
<clipPath id="clip1">
  <path d="M 112.5 266 L 574 266 L 574 635 L 112.5 635 Z M 112.5 266 "/>
</clipPath>
<clipPath id="clip2">
  <path d="M 112.5 256 L 273 256 L 273 447 L 112.5 447 Z M 112.5 256 "/>
</clipPath>
<clipPath id="clip3">
  <path d="M 112.5 240 L 232 240 L 232 438 L 112.5 438 Z M 112.5 240 "/>
</clipPath>
<clipPath id="clip4">
  <path d="M 327 573 L 640 573 L 640 1012.5 L 327 1012.5 Z M 327 573 "/>
</clipPath>
<clipPath id="clip5">
  <path d="M 325 571 L 642 571 L 642 1012.5 L 325 1012.5 Z M 325 571 "/>
</clipPath>
<clipPath id="clip6">
  <path d="M 317.332031 892 L 475 892 L 475 1012.5 L 317.332031 1012.5 Z M 317.332031 892 "/>
</clipPath>
<clipPath id="clip7">
  <path d="M 315.222656 890 L 477 890 L 477 1012.5 L 315.222656 1012.5 Z M 315.222656 890 "/>
</clipPath>
<clipPath id="clip8">
  <path d="M 302 937 L 474 937 L 474 1012.5 L 302 1012.5 Z M 302 937 "/>
</clipPath>
<clipPath id="clip9">
  <path d="M 300 935 L 476 935 L 476 1012.5 L 300 1012.5 Z M 300 935 "/>
</clipPath>
<clipPath id="clip10">
  <path d="M 555 494.714844 L 1012.5 494.714844 L 1012.5 861 L 555 861 Z M 555 494.714844 "/>
</clipPath>
<clipPath id="clip11">
  <path d="M 553 492.601562 L 1012.5 492.601562 L 1012.5 863 L 553 863 Z M 553 492.601562 "/>
</clipPath>
<clipPath id="clip12">
  <path d="M 857 682.65625 L 1012.5 682.65625 L 1012.5 871 L 857 871 Z M 857 682.65625 "/>
</clipPath>
<clipPath id="clip13">
  <path d="M 855 680.542969 L 1012.5 680.542969 L 1012.5 874 L 855 874 Z M 855 680.542969 "/>
</clipPath>
<clipPath id="clip14">
  <path d="M 897 691.101562 L 1012.5 691.101562 L 1012.5 887 L 897 887 Z M 897 691.101562 "/>
</clipPath>
<clipPath id="clip15">
  <path d="M 895 689 L 1012.5 689 L 1012.5 889 L 895 889 Z M 895 689 "/>
</clipPath>
<clipPath id="clip16">
  <path d="M 649 112.5 L 802 112.5 L 802 268 L 649 268 Z M 649 112.5 "/>
</clipPath>
<clipPath id="clip17">
  <path d="M 650 112.5 L 812 112.5 L 812 237 L 650 237 Z M 650 112.5 "/>
</clipPath>
<clipPath id="clip18">
  <path d="M 651 112.5 L 827 112.5 L 827 192 L 651 192 Z M 651 112.5 "/>
</clipPath>
<clipPath id="clip19">
  <path d="M 897 780 L 1012.5 780 L 1012.5 887 L 897 887 Z M 897 780 "/>
</clipPath>
<clipPath id="clip20">
  <path d="M 302 937 L 474 937 L 474 1012.5 L 302 1012.5 Z M 302 937 "/>
</clipPath>
</defs>
<g id="surface1">
<path style=" stroke:none;fill-rule:nonzero;fill:rgb(85.099792%,85.099792%,85.099792%);fill-opacity:1;" d="M 558.179688 447.910156 L 447.613281 411.988281 L 448.375 409.808594 L 532.847656 437.261719 C 541.445312 440.058594 550.683594 435.347656 553.472656 426.753906 L 554.734375 422.867188 C 557.519531 414.273438 552.8125 405.042969 544.222656 402.253906 L 457.667969 374.125 L 457.5625 374.472656 C 437.742188 367.667969 332.273438 330.574219 332.273438 330.574219 C 327.035156 328.863281 318.703125 333.007812 309.257812 337.136719 C 298.75 341.734375 286.871094 346.328125 276.34375 342.90625 L 276.238281 343.234375 L 114.613281 268.878906 L 114.613281 388.320312 L 249.824219 450.03125 C 258 458.089844 262.207031 474.160156 270.941406 487.605469 L 270.933594 487.605469 L 341.675781 619.253906 C 345.933594 630.0625 358.15625 635.371094 368.960938 631.109375 L 373.863281 629.179688 C 384.667969 624.921875 386.175781 610.453125 381.914062 599.648438 C 381.914062 599.648438 363.722656 566.007812 361.835938 528.9375 L 382.664062 535.703125 C 382.960938 535.800781 383.257812 535.859375 383.546875 535.941406 L 507.039062 575.609375 C 517.019531 578.851562 527.742188 573.390625 530.984375 563.402344 L 532.445312 558.890625 C 535.695312 548.910156 530.226562 538.1875 520.246094 534.945312 L 416.484375 501.230469 L 417.414062 498.558594 L 537.667969 537.632812 C 547.925781 540.964844 558.941406 535.347656 562.265625 525.09375 L 563.78125 520.449219 C 567.113281 510.199219 561.503906 499.1875 551.242188 495.84375 L 431.882812 457.066406 L 433.03125 453.785156 L 544.496094 489.996094 C 554.832031 493.355469 565.925781 487.703125 569.285156 477.367188 L 570.800781 472.691406 C 574.160156 462.363281 568.5 451.269531 558.179688 447.910156 "/>
<g clip-path="url(#clip1)" clip-rule="nonzero">
<path style=" stroke:none;fill-rule:nonzero;fill:rgb(13.729858%,12.159729%,12.548828%);fill-opacity:1;" d="M 558.179688 447.910156 L 558.832031 445.90625 L 450.3125 410.652344 L 450.359375 410.503906 L 448.375 409.808594 L 447.722656 411.824219 L 532.199219 439.265625 C 534.085938 439.886719 536.015625 440.175781 537.90625 440.175781 C 545.699219 440.183594 552.933594 435.207031 555.476562 427.40625 L 556.738281 423.519531 C 557.355469 421.628906 557.644531 419.699219 557.644531 417.8125 C 557.644531 410.015625 552.679688 402.78125 544.882812 400.242188 L 458.320312 372.113281 C 457.792969 371.949219 457.207031 371.988281 456.710938 372.246094 C 456.21875 372.492188 455.839844 372.945312 455.664062 373.472656 L 455.550781 373.820312 L 457.5625 374.472656 L 458.246094 372.46875 C 448.355469 369.078125 417.027344 358.097656 388.183594 347.976562 C 373.761719 342.914062 359.953125 338.0625 349.757812 334.484375 C 344.660156 332.691406 340.464844 331.214844 337.542969 330.183594 C 334.613281 329.160156 332.972656 328.578125 332.972656 328.578125 L 332.921875 328.558594 C 331.84375 328.214844 330.714844 328.066406 329.558594 328.066406 C 326.488281 328.074219 323.230469 329.039062 319.691406 330.375 C 314.398438 332.394531 308.484375 335.324219 302.386719 337.722656 C 296.289062 340.132812 290.03125 341.988281 284.214844 341.980469 C 281.722656 341.980469 279.316406 341.652344 276.988281 340.898438 C 275.882812 340.539062 274.695312 341.148438 274.332031 342.253906 L 274.226562 342.582031 L 276.238281 343.234375 L 277.121094 341.3125 L 115.496094 266.957031 C 114.84375 266.660156 114.074219 266.710938 113.472656 267.097656 C 112.863281 267.484375 112.5 268.152344 112.5 268.878906 L 112.5 388.320312 C 112.5 389.15625 112.976562 389.898438 113.738281 390.246094 L 248.949219 451.953125 L 249.824219 450.03125 L 248.339844 451.539062 C 252.070312 455.1875 255.121094 461.027344 258.265625 467.699219 C 261.414062 474.363281 264.679688 481.839844 269.167969 488.75 L 270.941406 487.605469 L 270.941406 485.492188 L 270.933594 485.492188 C 270.191406 485.492188 269.5 485.878906 269.121094 486.515625 C 268.738281 487.160156 268.722656 487.949219 269.070312 488.601562 L 339.8125 620.253906 L 341.675781 619.253906 L 339.710938 620.03125 C 343.300781 629.128906 352.019531 634.6875 361.25 634.6875 C 364.078125 634.6875 366.957031 634.167969 369.738281 633.070312 L 374.636719 631.140625 C 378.722656 629.539062 381.699219 626.578125 383.554688 623.039062 C 385.417969 619.492188 386.226562 615.386719 386.226562 611.21875 C 386.226562 607.023438 385.402344 602.742188 383.875 598.871094 L 383.769531 598.640625 C 383.769531 598.640625 383.703125 598.527344 383.578125 598.285156 C 381.632812 594.589844 365.664062 563.015625 363.945312 528.832031 L 361.835938 528.9375 L 361.183594 530.945312 L 382.011719 537.714844 C 382.449219 537.855469 382.777344 537.921875 382.984375 537.980469 L 383.546875 535.941406 L 382.902344 537.953125 L 506.386719 577.625 L 506.386719 577.613281 C 508.546875 578.324219 510.75 578.65625 512.910156 578.65625 C 521.8125 578.65625 530.085938 572.980469 532.988281 564.054688 L 534.457031 559.542969 C 535.160156 557.378906 535.496094 555.179688 535.496094 553.007812 C 535.496094 544.101562 529.8125 535.835938 520.898438 532.929688 L 419.1875 499.886719 L 419.410156 499.261719 L 417.414062 498.558594 L 416.765625 500.570312 L 537.015625 539.636719 C 539.234375 540.355469 541.492188 540.703125 543.703125 540.703125 C 552.835938 540.703125 561.308594 534.886719 564.277344 525.746094 L 565.785156 521.109375 C 566.511719 518.890625 566.851562 516.632812 566.851562 514.414062 C 566.851562 505.289062 561.035156 496.808594 551.894531 493.839844 L 434.589844 455.730469 L 435.027344 454.476562 L 433.03125 453.785156 L 432.378906 455.789062 L 543.84375 492 C 546.078125 492.726562 548.347656 493.082031 550.582031 493.074219 C 559.765625 493.082031 568.292969 487.226562 571.289062 478.019531 L 572.8125 473.351562 C 573.539062 471.113281 573.878906 468.847656 573.878906 466.609375 C 573.878906 457.429688 568.03125 448.894531 558.832031 445.90625 L 558.179688 447.910156 L 557.519531 449.914062 C 564.9375 452.324219 569.65625 459.210938 569.65625 466.609375 C 569.65625 468.410156 569.382812 470.234375 568.796875 472.039062 L 567.269531 476.714844 C 564.863281 484.132812 557.984375 488.851562 550.582031 488.859375 C 548.785156 488.851562 546.960938 488.578125 545.148438 487.984375 L 433.683594 451.773438 C 432.59375 451.417969 431.414062 452.003906 431.042969 453.082031 L 429.894531 456.375 C 429.707031 456.910156 429.746094 457.503906 429.996094 458.007812 C 430.25 458.511719 430.695312 458.898438 431.230469 459.082031 L 550.59375 497.859375 C 557.949219 500.242188 562.628906 507.078125 562.628906 514.414062 C 562.628906 516.195312 562.355469 518.007812 561.769531 519.800781 L 560.257812 524.445312 C 557.875 531.800781 551.046875 536.476562 543.703125 536.476562 C 541.921875 536.476562 540.109375 536.207031 538.316406 535.621094 L 418.066406 496.554688 C 416.980469 496.199219 415.800781 496.785156 415.417969 497.867188 L 414.488281 500.53125 C 414.304688 501.066406 414.339844 501.660156 414.59375 502.164062 C 414.84375 502.675781 415.296875 503.0625 415.832031 503.234375 L 519.59375 536.949219 C 526.726562 539.265625 531.265625 545.890625 531.273438 553.007812 C 531.273438 554.742188 531 556.5 530.441406 558.238281 L 528.972656 562.75 C 526.652344 569.886719 520.023438 574.429688 512.910156 574.429688 C 511.179688 574.429688 509.421875 574.167969 507.691406 573.597656 L 507.683594 573.597656 L 384.199219 533.9375 L 384.117188 533.914062 C 383.726562 533.804688 383.464844 533.746094 383.316406 533.699219 L 362.496094 526.933594 C 361.835938 526.710938 361.101562 526.84375 360.558594 527.265625 C 360.003906 527.683594 359.699219 528.351562 359.730469 529.046875 C 361.671875 566.71875 380 600.503906 380.046875 600.652344 L 381.914062 599.648438 L 379.949219 600.421875 C 381.277344 603.789062 382.011719 607.574219 382.003906 611.21875 C 382.011719 614.832031 381.285156 618.289062 379.816406 621.070312 C 378.332031 623.859375 376.179688 625.984375 373.085938 627.214844 L 368.195312 629.136719 C 365.910156 630.042969 363.558594 630.464844 361.25 630.464844 C 353.703125 630.464844 346.566406 625.917969 343.640625 618.480469 L 343.53125 618.257812 L 272.789062 486.605469 L 270.933594 487.605469 L 270.933594 489.714844 L 270.941406 489.714844 C 271.710938 489.714844 272.425781 489.296875 272.789062 488.609375 C 273.160156 487.925781 273.128906 487.101562 272.707031 486.457031 C 268.46875 479.925781 265.257812 472.640625 262.082031 465.894531 C 258.890625 459.164062 255.757812 452.941406 251.308594 448.53125 C 251.128906 448.355469 250.929688 448.214844 250.707031 448.109375 L 116.722656 386.96875 L 116.722656 272.171875 L 275.355469 345.15625 C 275.898438 345.402344 276.527344 345.414062 277.078125 345.164062 C 277.632812 344.925781 278.0625 344.464844 278.242188 343.886719 L 278.351562 343.554688 L 276.34375 342.90625 L 275.695312 344.917969 C 278.480469 345.816406 281.351562 346.203125 284.214844 346.203125 C 293.148438 346.1875 302.097656 342.558594 310.097656 339.070312 C 314.101562 337.320312 317.859375 335.585938 321.195312 334.324219 C 324.519531 333.046875 327.429688 332.273438 329.558594 332.289062 C 330.351562 332.289062 331.035156 332.386719 331.613281 332.578125 L 332.273438 330.574219 L 331.570312 332.5625 C 331.570312 332.5625 437.039062 369.65625 456.878906 376.46875 C 457.40625 376.648438 458 376.609375 458.503906 376.351562 C 459.007812 376.105469 459.394531 375.652344 459.566406 375.117188 L 459.683594 374.777344 L 457.667969 374.125 L 457.019531 376.128906 L 543.574219 404.257812 C 549.59375 406.214844 553.421875 411.804688 553.421875 417.8125 C 553.421875 419.273438 553.199219 420.75 552.71875 422.214844 L 551.457031 426.101562 C 549.511719 432.125 543.910156 435.949219 537.90625 435.949219 C 536.453125 435.949219 534.96875 435.726562 533.5 435.25 L 449.023438 407.804688 C 447.9375 407.449219 446.757812 408.027344 446.378906 409.117188 L 445.617188 411.296875 C 445.429688 411.832031 445.46875 412.425781 445.71875 412.929688 C 445.972656 413.441406 446.425781 413.828125 446.960938 414 L 557.519531 449.914062 L 558.179688 447.910156 "/>
</g>
<path style=" stroke:none;fill-rule:nonzero;fill:rgb(85.099792%,85.099792%,85.099792%);fill-opacity:1;" d="M 114.613281 258.246094 L 114.613281 398.953125 L 215.742188 444.578125 L 269.984375 329.425781 L 114.613281 258.246094 "/>
<g clip-path="url(#clip2)" clip-rule="nonzero">
<path style=" stroke:none;fill-rule:nonzero;fill:rgb(13.729858%,12.159729%,12.548828%);fill-opacity:1;" d="M 114.613281 258.246094 L 112.5 258.246094 L 112.5 398.953125 C 112.5 399.78125 112.988281 400.539062 113.746094 400.875 L 214.867188 446.5 C 215.921875 446.980469 217.160156 446.515625 217.648438 445.476562 L 271.890625 330.316406 C 272.128906 329.8125 272.15625 329.226562 271.964844 328.699219 C 271.765625 328.164062 271.371094 327.734375 270.859375 327.503906 L 115.496094 256.332031 C 114.835938 256.027344 114.074219 256.085938 113.472656 256.472656 C 112.863281 256.863281 112.5 257.53125 112.5 258.246094 L 114.613281 258.246094 L 113.730469 260.167969 L 267.164062 330.449219 L 214.710938 441.800781 L 116.722656 397.59375 L 116.722656 258.246094 L 114.613281 258.246094 L 113.730469 260.167969 L 114.613281 258.246094 "/>
</g>
<path style=" stroke:none;fill-rule:nonzero;fill:rgb(85.099792%,85.099792%,85.099792%);fill-opacity:1;" d="M 114.613281 242.441406 L 114.613281 414.757812 L 163.253906 435.660156 L 229.683594 294.632812 L 114.613281 242.441406 "/>
<g clip-path="url(#clip3)" clip-rule="nonzero">
<path style=" stroke:none;fill-rule:nonzero;fill:rgb(13.729858%,12.159729%,12.548828%);fill-opacity:1;" d="M 114.613281 242.441406 L 112.5 242.441406 L 112.5 414.757812 C 112.5 415.601562 113.003906 416.359375 113.777344 416.699219 L 162.421875 437.601562 C 163.46875 438.046875 164.683594 437.59375 165.167969 436.5625 L 231.597656 295.53125 C 231.835938 295.019531 231.859375 294.433594 231.660156 293.90625 C 231.472656 293.371094 231.066406 292.941406 230.554688 292.710938 L 115.484375 240.511719 C 114.824219 240.214844 114.074219 240.273438 113.464844 240.667969 C 112.863281 241.058594 112.5 241.71875 112.5 242.441406 L 114.613281 242.441406 L 113.738281 244.363281 L 226.859375 295.671875 L 162.214844 432.914062 L 116.722656 413.367188 L 116.722656 242.441406 L 114.613281 242.441406 L 113.738281 244.363281 L 114.613281 242.441406 "/>
</g>
<g clip-path="url(#clip4)" clip-rule="nonzero">
<path style=" stroke:none;fill-rule:nonzero;fill:rgb(85.099792%,85.099792%,85.099792%);fill-opacity:1;" d="M 636.488281 750.15625 L 633.863281 745.59375 C 628.046875 735.546875 613.523438 736.1875 603.457031 742.003906 C 603.457031 742.003906 572.886719 764.976562 536.503906 772.328125 L 540.109375 750.730469 C 540.164062 750.425781 540.183594 750.113281 540.222656 749.808594 L 561.160156 621.820312 C 562.890625 611.46875 555.894531 601.675781 545.542969 599.953125 L 540.859375 599.167969 C 530.507812 597.4375 520.714844 604.421875 518.984375 614.777344 L 501.007812 722.390625 L 498.230469 721.859375 L 519.066406 597.148438 C 520.847656 586.507812 513.664062 576.453125 503.03125 574.679688 L 498.210938 573.871094 C 487.570312 572.089844 477.507812 579.273438 475.734375 589.90625 L 455.054688 713.695312 L 451.632812 713.042969 L 470.941406 597.445312 C 472.738281 586.730469 465.507812 576.601562 454.78125 574.808594 L 449.941406 573.992188 C 439.226562 572.203125 429.085938 579.4375 427.296875 590.152344 L 408.144531 704.820312 L 405.875 704.390625 L 420.515625 616.78125 C 422.003906 607.863281 415.988281 599.425781 407.070312 597.941406 L 403.039062 597.261719 C 394.128906 595.777344 385.699219 601.800781 384.207031 610.710938 L 369.210938 700.472656 L 369.566406 700.53125 C 365.769531 721.136719 344.703125 830.941406 344.703125 830.941406 C 342.78125 842.410156 368.648438 863.683594 365.183594 884.429688 L 365.390625 884.460938 L 327.421875 1012.5 L 440.238281 1012.5 L 475.023438 894.828125 C 481.765625 885.535156 497.058594 878.992188 509.085938 868.34375 L 509.085938 868.351562 L 628.808594 778.894531 C 638.871094 773.085938 642.308594 760.210938 636.488281 750.15625 "/>
</g>
<g clip-path="url(#clip5)" clip-rule="nonzero">
<path style=" stroke:none;fill-rule:nonzero;fill:rgb(13.729858%,12.159729%,12.548828%);fill-opacity:1;" d="M 636.488281 750.15625 L 638.316406 749.097656 L 635.6875 744.535156 C 633.886719 741.410156 631.28125 739.152344 628.3125 737.730469 C 625.34375 736.304688 622.027344 735.6875 618.652344 735.6875 C 613.058594 735.695312 607.277344 737.359375 602.402344 740.171875 L 602.195312 740.3125 C 602.195312 740.3125 602.089844 740.394531 601.867188 740.5625 C 598.5 743.027344 569.636719 763.5 536.082031 770.257812 L 536.503906 772.328125 L 538.582031 772.671875 L 542.195312 751.078125 C 542.269531 750.625 542.285156 750.277344 542.308594 750.0625 L 540.222656 749.808594 L 542.300781 750.144531 L 563.246094 622.160156 L 563.238281 622.167969 C 563.445312 620.996094 563.535156 619.824219 563.535156 618.660156 C 563.535156 608.523438 556.21875 599.589844 545.890625 597.867188 L 541.214844 597.082031 C 540.035156 596.882812 538.863281 596.785156 537.699219 596.785156 C 527.5625 596.785156 518.628906 604.101562 516.902344 614.429688 L 499.277344 719.914062 L 498.625 719.789062 L 498.230469 721.859375 L 500.316406 722.207031 L 521.144531 597.503906 C 521.351562 596.289062 521.449219 595.085938 521.441406 593.90625 C 521.441406 583.511719 513.941406 574.355469 503.375 572.589844 L 498.558594 571.78125 C 497.355469 571.585938 496.148438 571.484375 494.960938 571.484375 C 484.578125 571.484375 475.421875 578.976562 473.648438 589.558594 L 453.332031 711.21875 L 452.027344 710.972656 L 451.632812 713.042969 L 453.71875 713.398438 L 473.027344 597.792969 C 473.226562 596.578125 473.324219 595.367188 473.324219 594.179688 C 473.324219 583.71875 465.785156 574.503906 455.128906 572.722656 L 450.285156 571.90625 C 449.074219 571.707031 447.871094 571.609375 446.675781 571.609375 C 436.214844 571.609375 427 579.148438 425.210938 589.796875 L 406.421875 702.335938 L 406.273438 702.3125 L 405.875 704.390625 L 407.953125 704.738281 L 422.597656 617.125 C 422.769531 616.09375 422.851562 615.074219 422.851562 614.058594 C 422.851562 605.183594 416.449219 597.363281 407.417969 595.851562 L 403.382812 595.183594 C 402.363281 595.011719 401.339844 594.929688 400.332031 594.929688 C 391.457031 594.929688 383.636719 601.332031 382.128906 610.363281 L 367.121094 700.125 C 366.933594 701.273438 367.707031 702.359375 368.855469 702.550781 L 369.210938 702.617188 L 369.566406 700.53125 L 367.484375 700.152344 C 365.597656 710.429688 359.378906 743.042969 353.636719 773.0625 C 350.765625 788.082031 348.011719 802.445312 345.980469 813.066406 C 344.957031 818.371094 344.125 822.742188 343.539062 825.789062 C 342.953125 828.832031 342.625 830.539062 342.625 830.546875 L 342.617188 830.589844 C 342.523438 831.125 342.484375 831.667969 342.484375 832.214844 C 342.515625 835.628906 344 839.050781 346.015625 842.753906 C 349.050781 848.296875 353.445312 854.453125 357.042969 860.910156 C 360.65625 867.371094 363.402344 874.082031 363.386719 880.5 C 363.386719 881.707031 363.296875 882.894531 363.097656 884.082031 C 362.90625 885.234375 363.683594 886.316406 364.839844 886.515625 L 365.035156 886.546875 L 365.390625 884.460938 L 363.363281 883.859375 L 325.390625 1011.894531 C 325.203125 1012.53125 325.328125 1013.230469 325.730469 1013.761719 C 326.125 1014.296875 326.753906 1014.609375 327.421875 1014.609375 L 440.238281 1014.609375 C 441.179688 1014.609375 441.996094 1014 442.269531 1013.101562 L 477.046875 895.421875 L 475.023438 894.828125 L 476.734375 896.066406 C 479.785156 891.835938 485.105469 887.941406 491.25 883.851562 C 497.378906 879.742188 504.300781 875.394531 510.488281 869.925781 L 509.085938 868.34375 L 506.980469 868.558594 C 507.054688 869.316406 507.535156 869.976562 508.234375 870.28125 C 508.925781 870.585938 509.734375 870.496094 510.347656 870.042969 L 630.070312 780.59375 L 628.808594 778.894531 L 629.871094 780.722656 C 637.277344 776.433594 641.4375 768.65625 641.425781 760.664062 C 641.425781 756.730469 640.421875 752.734375 638.316406 749.089844 L 636.488281 750.15625 L 634.664062 751.210938 C 636.386719 754.195312 637.203125 757.445312 637.203125 760.664062 C 637.203125 767.203125 633.8125 773.5625 627.75 777.070312 L 627.542969 777.203125 L 507.820312 866.660156 L 509.085938 868.351562 L 511.1875 868.144531 L 511.1875 868.136719 C 511.105469 867.34375 510.59375 866.667969 509.851562 866.378906 C 509.117188 866.089844 508.277344 866.238281 507.683594 866.765625 C 501.851562 871.9375 495.101562 876.1875 488.898438 880.335938 C 482.703125 884.503906 477.003906 888.527344 473.308594 893.585938 C 473.175781 893.773438 473.0625 894.003906 472.996094 894.226562 L 438.664062 1010.386719 L 330.242188 1010.386719 L 367.410156 885.0625 C 367.585938 884.484375 367.496094 883.859375 367.179688 883.339844 C 366.859375 882.828125 366.332031 882.480469 365.738281 882.382812 L 365.53125 882.339844 L 365.183594 884.429688 L 367.261719 884.773438 C 367.503906 883.347656 367.609375 881.921875 367.609375 880.5 C 367.609375 875.429688 366.207031 870.480469 364.179688 865.769531 C 361.125 858.691406 356.648438 852.078125 353 846.246094 C 351.179688 843.339844 349.5625 840.636719 348.441406 838.234375 C 347.300781 835.835938 346.699219 833.753906 346.707031 832.214844 C 346.707031 831.882812 346.730469 831.578125 346.78125 831.289062 L 344.703125 830.941406 L 346.773438 831.339844 C 346.773438 831.332031 367.847656 721.539062 371.644531 700.917969 C 371.742188 700.355469 371.617188 699.777344 371.296875 699.316406 C 370.96875 698.855469 370.472656 698.542969 369.910156 698.449219 L 369.554688 698.386719 L 369.210938 700.472656 L 371.289062 700.820312 L 386.285156 611.054688 C 387.449219 604.09375 393.496094 599.152344 400.332031 599.152344 C 401.109375 599.152344 401.890625 599.21875 402.691406 599.351562 L 406.726562 600.019531 C 413.6875 601.171875 418.628906 607.226562 418.628906 614.058594 C 418.628906 614.839844 418.5625 615.632812 418.429688 616.433594 L 403.796875 704.035156 C 403.605469 705.164062 404.359375 706.246094 405.480469 706.460938 L 407.75 706.890625 C 408.316406 706.996094 408.886719 706.875 409.347656 706.550781 C 409.820312 706.222656 410.132812 705.726562 410.222656 705.164062 L 429.375 590.5 C 430.804688 581.914062 438.261719 575.832031 446.675781 575.832031 C 447.632812 575.832031 448.605469 575.90625 449.585938 576.074219 L 454.4375 576.890625 C 463.023438 578.316406 469.101562 585.765625 469.101562 594.179688 C 469.101562 595.144531 469.027344 596.117188 468.863281 597.097656 L 449.554688 712.695312 C 449.363281 713.828125 450.113281 714.90625 451.242188 715.121094 L 454.660156 715.765625 C 455.21875 715.871094 455.796875 715.75 456.257812 715.425781 C 456.730469 715.105469 457.042969 714.59375 457.132812 714.042969 L 477.8125 590.261719 C 479.230469 581.738281 486.613281 575.710938 494.960938 575.710938 C 495.917969 575.710938 496.882812 575.785156 497.867188 575.949219 L 502.675781 576.757812 C 511.1875 578.167969 517.226562 585.550781 517.226562 593.90625 C 517.21875 594.855469 517.144531 595.828125 516.976562 596.800781 L 496.148438 721.515625 C 495.960938 722.644531 496.710938 723.726562 497.839844 723.941406 L 500.613281 724.460938 C 501.164062 724.566406 501.75 724.441406 502.214844 724.121094 C 502.675781 723.800781 502.996094 723.289062 503.085938 722.734375 L 521.070312 615.128906 C 522.445312 606.863281 529.605469 601.007812 537.699219 601.007812 C 538.625 601.007812 539.5625 601.089844 540.511719 601.246094 L 545.199219 602.03125 C 553.453125 603.402344 559.3125 610.570312 559.3125 618.660156 C 559.3125 619.59375 559.238281 620.523438 559.078125 621.472656 L 559.070312 621.480469 L 538.136719 749.46875 L 538.121094 749.550781 C 538.078125 749.949219 538.054688 750.21875 538.027344 750.386719 L 534.425781 771.980469 C 534.308594 772.664062 534.539062 773.367188 535.035156 773.84375 C 535.53125 774.324219 536.238281 774.539062 536.925781 774.398438 C 573.894531 766.898438 604.597656 743.769531 604.730469 743.695312 L 603.457031 742.003906 L 604.523438 743.835938 C 608.753906 741.378906 613.910156 739.902344 618.652344 739.910156 C 621.515625 739.910156 624.203125 740.4375 626.488281 741.535156 C 628.765625 742.640625 630.65625 744.28125 632.03125 746.65625 L 634.65625 751.210938 L 636.488281 750.15625 "/>
</g>
<g clip-path="url(#clip6)" clip-rule="nonzero">
<path style=" stroke:none;fill-rule:nonzero;fill:rgb(85.099792%,85.099792%,85.099792%);fill-opacity:1;" d="M 450.285156 1012.5 L 474.703125 929.308594 L 352.785156 892.71875 L 317.382812 1012.5 L 450.285156 1012.5 "/>
</g>
<g clip-path="url(#clip7)" clip-rule="nonzero">
<path style=" stroke:none;fill-rule:nonzero;fill:rgb(13.729858%,12.159729%,12.548828%);fill-opacity:1;" d="M 450.285156 1012.5 L 452.308594 1013.09375 L 476.734375 929.902344 C 477.054688 928.789062 476.417969 927.617188 475.3125 927.289062 L 353.390625 890.695312 C 352.851562 890.53125 352.273438 890.589844 351.78125 890.863281 C 351.285156 891.125 350.921875 891.578125 350.757812 892.117188 L 315.355469 1011.90625 C 315.164062 1012.539062 315.296875 1013.230469 315.691406 1013.761719 C 316.085938 1014.296875 316.714844 1014.609375 317.382812 1014.609375 L 450.285156 1014.609375 C 451.21875 1014.609375 452.042969 1013.992188 452.308594 1013.09375 L 450.285156 1012.5 L 450.285156 1010.386719 L 320.203125 1010.386719 L 354.214844 895.347656 L 472.089844 930.726562 L 448.257812 1011.90625 L 450.285156 1012.5 L 450.285156 1010.386719 L 450.285156 1012.5 "/>
</g>
<g clip-path="url(#clip8)" clip-rule="nonzero">
<path style=" stroke:none;fill-rule:nonzero;fill:rgb(85.099792%,85.099792%,85.099792%);fill-opacity:1;" d="M 465.210938 1012.5 L 473.65625 982.539062 L 324.34375 937.722656 L 302.453125 1012.5 L 465.210938 1012.5 "/>
</g>
<g clip-path="url(#clip9)" clip-rule="nonzero">
<path style=" stroke:none;fill-rule:nonzero;fill:rgb(13.729858%,12.159729%,12.548828%);fill-opacity:1;" d="M 465.210938 1012.5 L 467.238281 1013.074219 L 475.683594 983.109375 C 476 981.996094 475.363281 980.839844 474.257812 980.507812 L 324.957031 935.703125 C 324.410156 935.539062 323.832031 935.59375 323.339844 935.867188 C 322.84375 936.132812 322.480469 936.585938 322.324219 937.128906 L 300.421875 1011.90625 C 300.234375 1012.539062 300.367188 1013.230469 300.761719 1013.769531 C 301.15625 1014.296875 301.785156 1014.609375 302.453125 1014.609375 L 465.210938 1014.609375 C 466.148438 1014.609375 466.984375 1013.984375 467.238281 1013.074219 L 465.210938 1012.5 L 465.210938 1010.386719 L 305.265625 1010.386719 L 325.78125 940.355469 L 471.058594 983.957031 L 463.171875 1011.929688 L 465.210938 1012.5 L 465.210938 1010.386719 L 465.210938 1012.5 "/>
</g>
<g clip-path="url(#clip10)" clip-rule="nonzero">
<path style=" stroke:none;fill-rule:nonzero;fill:rgb(85.099792%,85.099792%,85.099792%);fill-opacity:1;" d="M 877.316406 677.390625 C 869.125 669.339844 864.917969 653.246094 856.175781 639.777344 L 856.183594 639.777344 L 785.433594 508.128906 C 781.179688 497.320312 768.953125 492.007812 758.148438 496.273438 L 753.257812 498.195312 C 742.449219 502.46875 740.941406 516.929688 745.195312 527.734375 C 745.195312 527.734375 763.386719 561.375 765.273438 598.441406 L 744.445312 591.679688 C 744.15625 591.582031 743.859375 591.523438 743.5625 591.441406 L 620.078125 551.773438 C 610.097656 548.53125 599.375 553.992188 596.132812 563.980469 L 594.664062 568.492188 C 591.421875 578.472656 596.882812 589.195312 606.863281 592.4375 L 710.625 626.152344 L 709.703125 628.824219 L 589.445312 589.75 C 579.183594 586.417969 568.171875 592.035156 564.847656 602.285156 L 563.335938 606.921875 C 559.996094 617.183594 565.605469 628.195312 575.867188 631.527344 L 695.226562 670.316406 L 694.078125 673.597656 L 582.613281 637.386719 C 572.277344 634.027344 561.191406 639.679688 557.835938 650.015625 L 556.308594 654.683594 C 552.953125 665.019531 558.609375 676.113281 568.9375 679.472656 L 679.503906 715.394531 L 678.738281 717.570312 L 594.269531 690.121094 C 585.664062 687.324219 576.433594 692.035156 573.648438 700.628906 L 572.378906 704.515625 C 569.589844 713.109375 574.300781 722.339844 582.886719 725.128906 L 669.441406 753.257812 L 669.554688 752.910156 C 689.371094 759.714844 794.847656 796.808594 794.847656 796.808594 C 800.074219 798.507812 808.40625 794.375 817.859375 790.242188 C 828.359375 785.648438 840.238281 781.054688 850.773438 784.476562 L 850.8125 784.335938 L 1012.5 860.332031 L 1012.5 740.882812 L 877.316406 677.390625 "/>
</g>
<g clip-path="url(#clip11)" clip-rule="nonzero">
<path style=" stroke:none;fill-rule:nonzero;fill:rgb(13.729858%,12.159729%,12.548828%);fill-opacity:1;" d="M 877.316406 677.390625 L 878.800781 675.890625 C 875.066406 672.246094 872.003906 666.394531 868.863281 659.714844 C 865.710938 653.042969 862.4375 645.550781 857.949219 638.632812 L 856.175781 639.777344 L 856.175781 641.890625 L 856.183594 641.890625 C 856.917969 641.890625 857.609375 641.5 857.992188 640.867188 C 858.371094 640.222656 858.394531 639.429688 858.039062 638.78125 L 787.296875 507.128906 L 785.433594 508.128906 L 787.40625 507.351562 C 783.808594 498.253906 775.089844 492.6875 765.859375 492.6875 C 763.03125 492.6875 760.152344 493.207031 757.371094 494.3125 L 752.480469 496.234375 C 748.390625 497.839844 745.410156 500.800781 743.5625 504.339844 C 741.699219 507.886719 740.882812 511.996094 740.882812 516.160156 C 740.882812 520.359375 741.707031 524.632812 743.234375 528.511719 L 743.339844 528.742188 C 743.339844 528.742188 743.40625 528.855469 743.53125 529.097656 C 745.484375 532.792969 761.445312 564.367188 763.164062 598.550781 L 765.273438 598.441406 L 763.164062 598.441406 L 765.273438 598.441406 L 765.925781 596.4375 L 745.097656 589.667969 C 744.660156 589.527344 744.332031 589.460938 744.117188 589.402344 L 743.5625 591.441406 L 744.207031 589.425781 L 620.722656 549.757812 L 620.730469 549.765625 C 618.570312 549.058594 616.367188 548.71875 614.199219 548.71875 C 605.296875 548.71875 597.023438 554.402344 594.121094 563.328125 L 592.660156 567.839844 C 591.953125 570 591.613281 572.203125 591.613281 574.375 C 591.613281 583.273438 597.289062 591.539062 606.214844 594.449219 L 707.921875 627.496094 L 707.707031 628.121094 L 709.703125 628.824219 L 710.355469 626.8125 L 590.09375 587.746094 C 587.875 587.019531 585.625 586.671875 583.398438 586.679688 C 574.273438 586.671875 565.804688 592.496094 562.839844 601.636719 L 561.324219 606.269531 C 560.597656 608.488281 560.257812 610.75 560.257812 612.96875 C 560.25 622.09375 566.066406 630.5625 575.214844 633.542969 L 692.519531 671.652344 L 692.082031 672.90625 L 694.078125 673.597656 L 694.730469 671.59375 L 583.265625 635.371094 C 581.039062 634.648438 578.761719 634.300781 576.527344 634.300781 C 567.34375 634.300781 558.816406 640.15625 555.820312 649.363281 L 554.304688 654.03125 C 553.570312 656.265625 553.230469 658.535156 553.230469 660.761719 C 553.230469 669.953125 559.078125 678.480469 568.285156 681.476562 L 676.796875 716.730469 L 676.75 716.871094 L 678.738281 717.570312 L 679.386719 715.558594 L 594.914062 688.117188 C 593.023438 687.496094 591.101562 687.199219 589.203125 687.199219 C 581.410156 687.199219 574.175781 692.164062 571.632812 699.976562 L 570.371094 703.863281 C 569.753906 705.75 569.464844 707.671875 569.464844 709.5625 C 569.464844 717.355469 574.429688 724.589844 582.226562 727.140625 L 668.789062 755.261719 C 669.324219 755.441406 669.894531 755.390625 670.398438 755.136719 C 670.898438 754.882812 671.273438 754.445312 671.445312 753.90625 L 671.558594 753.5625 L 669.554688 752.910156 L 668.863281 754.90625 C 678.753906 758.304688 710.082031 769.285156 738.929688 779.40625 C 753.355469 784.46875 767.15625 789.320312 777.351562 792.898438 C 782.449219 794.691406 786.648438 796.167969 789.574219 797.195312 C 792.496094 798.21875 794.136719 798.796875 794.144531 798.804688 L 794.1875 798.820312 C 795.273438 799.167969 796.40625 799.308594 797.550781 799.308594 C 800.621094 799.300781 803.878906 798.335938 807.417969 797 C 812.714844 794.988281 818.628906 792.050781 824.722656 789.648438 C 830.820312 787.242188 837.078125 785.386719 842.894531 785.394531 C 845.386719 785.394531 847.796875 785.722656 850.121094 786.480469 C 850.65625 786.65625 851.226562 786.613281 851.730469 786.359375 C 852.234375 786.101562 852.605469 785.664062 852.777344 785.128906 L 852.828125 784.988281 L 850.8125 784.335938 L 849.921875 786.242188 L 1011.597656 862.238281 C 1012.25 862.550781 1013.027344 862.503906 1013.628906 862.113281 C 1014.238281 861.726562 1014.609375 861.050781 1014.609375 860.332031 L 1014.609375 740.882812 C 1014.609375 740.066406 1014.140625 739.324219 1013.398438 738.976562 L 878.214844 675.476562 L 877.316406 677.390625 L 878.800781 675.890625 L 877.316406 677.390625 L 876.417969 679.304688 L 1010.386719 742.226562 L 1010.386719 857.007812 L 851.714844 782.421875 C 851.167969 782.167969 850.535156 782.160156 849.980469 782.398438 C 849.429688 782.636719 849 783.109375 848.808594 783.675781 L 848.761719 783.816406 L 850.773438 784.476562 L 851.425781 782.464844 C 848.628906 781.558594 845.765625 781.167969 842.894531 781.167969 C 833.960938 781.1875 825.011719 784.816406 817.011719 788.304688 C 813.011719 790.054688 809.25 791.785156 805.917969 793.046875 C 802.59375 794.328125 799.679688 795.101562 797.550781 795.085938 C 796.75 795.085938 796.066406 794.988281 795.496094 794.804688 L 794.847656 796.808594 L 795.546875 794.820312 C 795.539062 794.8125 690.078125 757.726562 670.242188 750.914062 C 669.703125 750.730469 669.109375 750.773438 668.605469 751.019531 C 668.105469 751.277344 667.714844 751.722656 667.542969 752.257812 L 667.425781 752.605469 L 669.441406 753.257812 L 670.09375 751.242188 L 583.539062 723.125 C 577.515625 721.167969 573.6875 715.566406 573.6875 709.5625 C 573.6875 708.109375 573.910156 706.632812 574.390625 705.164062 L 575.652344 701.28125 C 577.597656 695.257812 583.199219 691.421875 589.203125 691.421875 C 590.65625 691.421875 592.140625 691.652344 593.609375 692.132812 L 678.085938 719.578125 C 679.175781 719.929688 680.351562 719.34375 680.734375 718.265625 L 681.492188 716.085938 C 681.679688 715.550781 681.640625 714.957031 681.394531 714.453125 C 681.136719 713.941406 680.691406 713.554688 680.15625 713.382812 L 569.589844 677.457031 C 562.164062 675.050781 557.453125 668.160156 557.453125 660.761719 C 557.453125 658.972656 557.726562 657.140625 558.3125 655.335938 L 559.839844 650.667969 C 562.246094 643.242188 569.128906 638.523438 576.527344 638.523438 C 578.324219 638.523438 580.15625 638.804688 581.960938 639.390625 L 693.425781 675.601562 C 694.515625 675.957031 695.695312 675.378906 696.074219 674.289062 L 697.222656 671.007812 C 697.402344 670.472656 697.371094 669.878906 697.113281 669.375 C 696.867188 668.871094 696.414062 668.476562 695.878906 668.300781 L 576.519531 629.523438 C 569.160156 627.132812 564.484375 620.300781 564.484375 612.96875 C 564.484375 611.1875 564.753906 609.371094 565.339844 607.582031 L 566.851562 602.9375 C 569.234375 595.582031 576.0625 590.902344 583.398438 590.894531 C 585.1875 590.902344 586.992188 591.175781 588.792969 591.761719 L 709.042969 630.828125 C 710.140625 631.183594 711.3125 630.597656 711.691406 629.515625 L 712.621094 626.851562 C 712.804688 626.316406 712.769531 625.722656 712.523438 625.21875 C 712.269531 624.707031 711.8125 624.320312 711.277344 624.144531 L 607.515625 590.433594 C 600.382812 588.117188 595.84375 581.484375 595.835938 574.375 C 595.835938 572.640625 596.109375 570.882812 596.667969 569.144531 L 598.136719 564.632812 C 600.457031 557.488281 607.085938 552.949219 614.199219 552.941406 C 615.929688 552.941406 617.679688 553.214844 619.417969 553.785156 L 619.429688 553.785156 L 742.910156 593.445312 L 743.003906 593.476562 C 743.382812 593.578125 743.644531 593.632812 743.792969 593.683594 L 764.621094 600.449219 C 765.265625 600.660156 765.96875 600.546875 766.511719 600.152344 C 767.066406 599.753906 767.386719 599.121094 767.386719 598.441406 L 767.386719 598.335938 C 765.441406 560.664062 747.117188 526.875 747.0625 526.726562 L 745.195312 527.734375 L 747.167969 526.960938 C 745.832031 523.585938 745.097656 519.800781 745.105469 516.160156 C 745.097656 512.546875 745.824219 509.09375 747.292969 506.3125 C 748.777344 503.523438 750.929688 501.394531 754.03125 500.167969 L 758.914062 498.238281 L 758.921875 498.238281 C 761.207031 497.328125 763.550781 496.910156 765.859375 496.910156 C 773.40625 496.910156 780.542969 501.453125 783.472656 508.902344 L 783.578125 509.125 L 854.320312 640.777344 L 856.183594 639.777344 L 856.183594 637.664062 L 856.175781 637.664062 C 855.402344 637.664062 854.691406 638.085938 854.320312 638.769531 C 853.949219 639.449219 853.980469 640.28125 854.402344 640.925781 C 858.652344 647.464844 861.859375 654.765625 865.042969 661.519531 C 868.242188 668.269531 871.378906 674.496094 875.839844 678.902344 C 876.007812 679.066406 876.210938 679.207031 876.417969 679.304688 L 877.316406 677.390625 "/>
</g>
<g clip-path="url(#clip12)" clip-rule="nonzero">
<path style=" stroke:none;fill-rule:nonzero;fill:rgb(85.099792%,85.099792%,85.099792%);fill-opacity:1;" d="M 1012.5 730.257812 L 911.375 682.804688 L 857.132812 797.964844 L 1012.5 870.957031 L 1012.5 730.257812 "/>
</g>
<g clip-path="url(#clip13)" clip-rule="nonzero">
<path style=" stroke:none;fill-rule:nonzero;fill:rgb(13.729858%,12.159729%,12.548828%);fill-opacity:1;" d="M 1012.5 730.257812 L 1013.398438 728.34375 L 912.265625 680.890625 C 911.210938 680.394531 909.957031 680.847656 909.464844 681.902344 L 855.21875 797.066406 C 854.980469 797.566406 854.953125 798.144531 855.144531 798.671875 C 855.335938 799.210938 855.722656 799.628906 856.234375 799.871094 L 1011.597656 872.871094 C 1012.25 873.175781 1013.027344 873.128906 1013.628906 872.746094 C 1014.238281 872.359375 1014.609375 871.683594 1014.609375 870.957031 L 1014.609375 730.257812 C 1014.609375 729.433594 1014.140625 728.691406 1013.398438 728.34375 L 1012.5 730.257812 L 1010.386719 730.257812 L 1010.386719 867.632812 L 859.9375 796.949219 L 912.382812 685.609375 L 1011.597656 732.164062 L 1012.5 730.257812 L 1010.386719 730.257812 L 1012.5 730.257812 "/>
</g>
<g clip-path="url(#clip14)" clip-rule="nonzero">
<path style=" stroke:none;fill-rule:nonzero;fill:rgb(85.099792%,85.099792%,85.099792%);fill-opacity:1;" d="M 1012.5 714.453125 L 963.855469 691.726562 L 897.4375 832.75 L 1012.5 886.769531 L 1012.5 714.453125 "/>
</g>
<g clip-path="url(#clip15)" clip-rule="nonzero">
<path style=" stroke:none;fill-rule:nonzero;fill:rgb(13.729858%,12.159729%,12.548828%);fill-opacity:1;" d="M 1012.5 714.453125 L 1013.398438 712.539062 L 964.753906 689.816406 C 963.699219 689.320312 962.445312 689.765625 961.949219 690.820312 L 895.523438 831.851562 C 895.285156 832.363281 895.257812 832.929688 895.449219 833.46875 C 895.636719 833.996094 896.027344 834.425781 896.539062 834.664062 L 1011.597656 888.683594 C 1012.25 888.988281 1013.027344 888.941406 1013.628906 888.550781 C 1014.238281 888.164062 1014.609375 887.488281 1014.609375 886.769531 L 1014.609375 714.453125 C 1014.609375 713.636719 1014.140625 712.886719 1013.398438 712.539062 L 1012.5 714.453125 L 1010.386719 714.453125 L 1010.386719 883.445312 L 900.242188 831.734375 L 964.871094 694.523438 L 1011.605469 716.367188 L 1012.5 714.453125 L 1010.386719 714.453125 L 1012.5 714.453125 "/>
</g>
<path style=" stroke:none;fill-rule:nonzero;fill:rgb(85.099792%,85.099792%,85.099792%);fill-opacity:1;" d="M 686.359375 114.613281 L 651.210938 234.566406 L 754.707031 265.628906 L 799.183594 114.613281 L 686.359375 114.613281 "/>
<g clip-path="url(#clip16)" clip-rule="nonzero">
<path style=" stroke:none;fill-rule:nonzero;fill:rgb(13.729858%,12.159729%,12.548828%);fill-opacity:1;" d="M 686.359375 114.613281 L 684.335938 114.019531 L 649.179688 233.972656 C 648.859375 235.085938 649.496094 236.246094 650.601562 236.585938 L 754.097656 267.652344 C 754.640625 267.816406 755.210938 267.75 755.714844 267.484375 C 756.210938 267.214844 756.570312 266.769531 756.730469 266.222656 L 801.207031 115.207031 C 801.394531 114.570312 801.273438 113.878906 800.875 113.347656 C 800.480469 112.8125 799.84375 112.5 799.183594 112.5 L 686.359375 112.5 C 685.425781 112.5 684.601562 113.117188 684.335938 114.019531 L 686.359375 114.613281 L 686.359375 116.722656 L 796.355469 116.722656 L 753.28125 263 L 653.824219 233.144531 L 688.386719 115.207031 L 686.359375 114.613281 L 686.359375 116.722656 L 686.359375 114.613281 "/>
</g>
<path style=" stroke:none;fill-rule:nonzero;fill:rgb(85.099792%,85.099792%,85.099792%);fill-opacity:1;" d="M 676.320312 114.613281 L 652.199219 197.800781 L 774.117188 234.390625 L 809.222656 114.613281 L 676.320312 114.613281 "/>
<g clip-path="url(#clip17)" clip-rule="nonzero">
<path style=" stroke:none;fill-rule:nonzero;fill:rgb(13.729858%,12.159729%,12.548828%);fill-opacity:1;" d="M 676.320312 114.613281 L 674.289062 114.027344 L 650.171875 197.214844 C 649.847656 198.328125 650.484375 199.492188 651.597656 199.820312 L 773.515625 236.421875 C 774.050781 236.578125 774.628906 236.519531 775.125 236.246094 C 775.625 235.984375 775.988281 235.53125 776.144531 234.984375 L 811.246094 115.207031 C 811.433594 114.570312 811.3125 113.878906 810.914062 113.339844 C 810.511719 112.8125 809.882812 112.5 809.222656 112.5 L 676.320312 112.5 C 675.378906 112.5 674.554688 113.125 674.289062 114.027344 L 676.320312 114.613281 L 676.320312 116.722656 L 806.402344 116.722656 L 772.691406 231.761719 L 654.816406 196.382812 L 678.347656 115.199219 L 676.320312 114.613281 L 676.320312 116.722656 L 676.320312 114.613281 "/>
</g>
<path style=" stroke:none;fill-rule:nonzero;fill:rgb(85.099792%,85.099792%,85.099792%);fill-opacity:1;" d="M 661.398438 114.613281 L 653.246094 144.578125 L 802.558594 189.386719 L 824.152344 114.613281 L 661.398438 114.613281 "/>
<g clip-path="url(#clip18)" clip-rule="nonzero">
<path style=" stroke:none;fill-rule:nonzero;fill:rgb(13.729858%,12.159729%,12.548828%);fill-opacity:1;" d="M 661.398438 114.613281 L 659.359375 114.058594 L 651.210938 144.027344 C 650.914062 145.132812 651.546875 146.269531 652.644531 146.601562 L 801.949219 191.40625 C 802.492188 191.574219 803.070312 191.515625 803.574219 191.242188 C 804.058594 190.96875 804.429688 190.515625 804.589844 189.972656 L 826.183594 115.199219 C 826.363281 114.5625 826.242188 113.871094 825.84375 113.339844 C 825.441406 112.8125 824.8125 112.5 824.152344 112.5 L 661.398438 112.5 C 660.441406 112.5 659.609375 113.144531 659.359375 114.058594 L 661.398438 114.613281 L 661.398438 116.722656 L 821.347656 116.722656 L 801.125 186.746094 L 655.828125 143.144531 L 663.433594 115.164062 L 661.398438 114.613281 L 661.398438 116.722656 L 661.398438 114.613281 "/>
</g>
<path style=" stroke:none;fill-rule:nonzero;fill:rgb(85.099792%,85.099792%,85.099792%);fill-opacity:1;" d="M 761.726562 242.683594 L 655.144531 224.871094 C 652.84375 238.632812 632.792969 245.519531 617.828125 258.757812 L 498.097656 348.207031 C 488.042969 354.023438 484.601562 366.898438 490.417969 376.957031 L 493.046875 381.515625 C 498.863281 391.5625 513.390625 390.921875 523.445312 385.105469 C 523.445312 385.105469 554.023438 362.132812 590.402344 354.78125 L 586.796875 376.378906 C 586.738281 376.699219 586.722656 377.019531 586.679688 377.34375 L 565.746094 505.289062 C 564.011719 515.640625 571.007812 525.433594 581.359375 527.164062 L 586.046875 527.941406 C 596.398438 529.679688 606.1875 522.6875 607.921875 512.335938 L 625.902344 404.722656 L 628.675781 405.25 L 607.839844 529.960938 C 606.066406 540.601562 613.25 550.65625 623.882812 552.429688 L 628.691406 553.238281 C 639.332031 555.023438 649.394531 547.835938 651.175781 537.195312 L 671.847656 413.414062 L 675.273438 414.066406 L 655.960938 529.664062 C 654.171875 540.378906 661.40625 550.507812 672.121094 552.300781 L 676.972656 553.117188 C 687.679688 554.90625 697.816406 547.671875 699.605469 536.957031 L 718.757812 422.289062 L 721.027344 422.71875 L 706.394531 510.328125 C 704.902344 519.246094 710.921875 527.683594 719.832031 529.171875 L 723.867188 529.847656 C 732.78125 531.332031 741.210938 525.308594 742.699219 516.402344 L 757.703125 426.636719 L 757.339844 426.578125 C 761.132812 405.984375 782.210938 296.167969 782.210938 296.167969 C 784.121094 284.703125 758.261719 263.425781 761.726562 242.683594 "/>
<path style=" stroke:none;fill-rule:nonzero;fill:rgb(13.729858%,12.159729%,12.548828%);fill-opacity:1;" d="M 761.726562 242.683594 L 762.074219 240.59375 L 655.492188 222.792969 C 654.34375 222.597656 653.246094 223.371094 653.058594 224.527344 C 652.5625 227.488281 651.121094 230.128906 648.859375 232.71875 C 645.476562 236.601562 640.257812 240.230469 634.433594 244.085938 C 628.609375 247.953125 622.199219 252.078125 616.425781 257.183594 L 617.828125 258.757812 L 619.90625 258.414062 C 619.78125 257.6875 619.289062 257.074219 618.613281 256.804688 C 617.925781 256.523438 617.152344 256.628906 616.558594 257.066406 L 496.835938 346.515625 L 498.097656 348.207031 L 497.042969 346.386719 C 489.625 350.667969 485.46875 358.453125 485.476562 366.445312 C 485.476562 370.371094 486.484375 374.375 488.585938 378.011719 L 491.21875 382.574219 C 493.023438 385.699219 495.621094 387.960938 498.59375 389.378906 C 501.5625 390.804688 504.878906 391.421875 508.25 391.421875 C 513.84375 391.414062 519.625 389.742188 524.5 386.929688 L 524.714844 386.789062 C 524.714844 386.789062 524.816406 386.714844 525.046875 386.546875 C 528.402344 384.074219 557.273438 363.609375 590.820312 356.851562 L 590.402344 354.78125 L 588.320312 354.4375 L 584.707031 376.03125 C 584.632812 376.5 584.617188 376.855469 584.585938 377.085938 L 586.679688 377.34375 L 584.601562 376.996094 L 563.667969 504.953125 L 563.667969 504.941406 C 563.46875 506.113281 563.371094 507.285156 563.371094 508.441406 C 563.371094 518.578125 570.6875 527.511719 581.011719 529.246094 L 585.699219 530.027344 C 586.878906 530.21875 588.050781 530.316406 589.203125 530.316406 C 599.34375 530.316406 608.277344 523 610 512.679688 L 627.628906 407.195312 L 628.277344 407.320312 L 628.675781 405.25 L 626.589844 404.902344 L 605.761719 529.605469 C 605.554688 530.820312 605.453125 532.015625 605.460938 533.203125 C 605.460938 543.597656 612.960938 552.746094 623.535156 554.519531 L 628.34375 555.320312 C 629.558594 555.523438 630.761719 555.625 631.941406 555.625 C 642.328125 555.625 651.484375 548.125 653.257812 537.550781 L 673.582031 415.890625 L 674.875 416.136719 L 675.273438 414.066406 L 673.183594 413.71875 L 653.875 529.320312 C 653.675781 530.523438 653.578125 531.734375 653.578125 532.929688 C 653.578125 543.390625 661.117188 552.597656 671.773438 554.386719 L 676.617188 555.203125 C 677.835938 555.402344 679.042969 555.5 680.230469 555.5 C 690.6875 555.5 699.902344 547.953125 701.691406 537.3125 L 720.492188 424.765625 L 720.632812 424.796875 L 721.027344 422.71875 L 718.949219 422.375 L 704.308594 509.984375 C 704.132812 511.015625 704.050781 512.039062 704.050781 513.050781 C 704.050781 521.925781 710.453125 529.738281 719.484375 531.257812 L 723.519531 531.925781 C 724.550781 532.097656 725.574219 532.179688 726.578125 532.179688 C 735.457031 532.179688 743.265625 525.769531 744.785156 516.753906 L 759.78125 426.984375 C 759.871094 426.429688 759.746094 425.871094 759.417969 425.410156 C 759.089844 424.945312 758.601562 424.640625 758.039062 424.550781 L 757.6875 424.492188 L 757.339844 426.578125 L 759.417969 426.960938 C 761.308594 416.679688 767.527344 384.074219 773.265625 354.046875 C 776.136719 339.035156 778.894531 324.667969 780.929688 314.042969 C 781.945312 308.738281 782.785156 304.367188 783.363281 301.324219 C 783.949219 298.277344 784.28125 296.570312 784.28125 296.5625 L 784.289062 296.511719 C 784.378906 295.976562 784.417969 295.441406 784.417969 294.898438 C 784.394531 291.480469 782.902344 288.050781 780.898438 284.347656 C 777.855469 278.8125 773.464844 272.65625 769.859375 266.191406 C 766.257812 259.730469 763.5 253.019531 763.515625 246.601562 C 763.515625 245.402344 763.609375 244.207031 763.804688 243.027344 C 763.898438 242.476562 763.773438 241.914062 763.441406 241.453125 C 763.113281 241 762.625 240.6875 762.074219 240.59375 L 761.726562 242.683594 L 759.640625 242.328125 C 759.402344 243.753906 759.292969 245.179688 759.292969 246.601562 C 759.292969 251.671875 760.703125 256.621094 762.734375 261.339844 C 765.777344 268.410156 770.257812 275.035156 773.902344 280.855469 C 775.726562 283.769531 777.34375 286.476562 778.464844 288.875 C 779.601562 291.265625 780.203125 293.355469 780.195312 294.898438 C 780.195312 295.226562 780.171875 295.53125 780.121094 295.820312 L 782.210938 296.167969 L 780.128906 295.769531 C 780.128906 295.769531 759.0625 405.578125 755.269531 426.199219 C 755.160156 426.753906 755.292969 427.332031 755.613281 427.792969 C 755.9375 428.253906 756.441406 428.566406 757 428.660156 L 757.355469 428.714844 L 757.703125 426.636719 L 755.613281 426.292969 L 740.617188 516.054688 C 739.457031 523.007812 733.410156 527.957031 726.578125 527.957031 C 725.796875 527.957031 725.003906 527.890625 724.210938 527.757812 L 720.179688 527.082031 C 713.214844 525.929688 708.277344 519.882812 708.277344 513.050781 C 708.277344 512.269531 708.339844 511.476562 708.472656 510.683594 L 723.113281 423.066406 C 723.296875 421.9375 722.546875 420.855469 721.425781 420.648438 L 719.15625 420.21875 C 718.601562 420.113281 718.015625 420.238281 717.554688 420.558594 C 717.09375 420.878906 716.773438 421.382812 716.679688 421.945312 L 697.527344 536.609375 C 696.09375 545.1875 688.644531 551.277344 680.230469 551.277344 C 679.265625 551.277344 678.300781 551.195312 677.316406 551.039062 L 672.46875 550.222656 C 663.878906 548.785156 657.800781 541.34375 657.800781 532.929688 C 657.800781 531.964844 657.875 530.992188 658.039062 530.011719 L 677.351562 414.414062 C 677.539062 413.28125 676.789062 412.203125 675.667969 411.988281 L 672.246094 411.34375 C 671.691406 411.238281 671.105469 411.359375 670.644531 411.683594 C 670.183594 412.003906 669.859375 412.507812 669.769531 413.070312 L 649.089844 536.847656 C 647.671875 545.363281 640.289062 551.398438 631.941406 551.398438 C 630.984375 551.398438 630.019531 551.316406 629.046875 551.160156 L 624.230469 550.351562 C 615.714844 548.933594 609.679688 541.550781 609.679688 533.203125 C 609.6875 532.246094 609.761719 531.28125 609.925781 530.308594 L 630.753906 405.59375 C 630.941406 404.464844 630.191406 403.382812 629.0625 403.171875 L 626.289062 402.640625 C 625.738281 402.542969 625.152344 402.667969 624.691406 402.988281 C 624.230469 403.308594 623.90625 403.8125 623.816406 404.375 L 605.835938 511.980469 C 604.464844 520.238281 597.296875 526.09375 589.203125 526.09375 C 588.273438 526.09375 587.332031 526.019531 586.390625 525.863281 L 581.707031 525.078125 C 573.449219 523.699219 567.59375 516.53125 567.59375 508.441406 C 567.59375 507.515625 567.675781 506.585938 567.832031 505.636719 L 567.832031 505.628906 L 588.765625 377.679688 L 588.785156 377.589844 C 588.824219 377.1875 588.839844 376.90625 588.875 376.722656 L 592.488281 355.128906 C 592.59375 354.445312 592.363281 353.742188 591.867188 353.265625 C 591.375 352.777344 590.664062 352.570312 589.980469 352.710938 C 553.007812 360.210938 522.308594 383.332031 522.175781 383.414062 L 523.445312 385.105469 L 522.390625 383.273438 C 518.148438 385.730469 512.984375 387.207031 508.25 387.199219 C 505.390625 387.199219 502.699219 386.671875 500.414062 385.566406 C 498.136719 384.46875 496.25 382.828125 494.871094 380.453125 L 492.25 375.898438 C 490.515625 372.90625 489.699219 369.664062 489.699219 366.445312 C 489.699219 359.898438 493.089844 353.546875 499.152344 350.039062 L 499.359375 349.90625 L 619.089844 260.449219 L 617.828125 258.757812 L 615.742188 259.105469 C 615.863281 259.863281 616.390625 260.5 617.117188 260.746094 C 617.84375 261.011719 618.644531 260.855469 619.222656 260.34375 C 626.488281 253.898438 635.160156 248.910156 642.457031 243.730469 C 646.105469 241.132812 649.421875 238.484375 652.035156 235.496094 C 654.648438 232.519531 656.570312 229.136719 657.222656 225.21875 L 655.144531 224.871094 L 654.796875 226.953125 L 761.371094 244.761719 L 761.726562 242.683594 L 759.640625 242.328125 L 761.726562 242.683594 "/>
<path style=" stroke:none;fill-rule:nonzero;fill:rgb(32.939148%,32.939148%,32.939148%);fill-opacity:1;" d="M 902.535156 816.960938 L 889.460938 810.816406 C 894.996094 810.59375 900.488281 810.222656 905.941406 809.726562 L 902.535156 816.960938 "/>
<path style=" stroke:none;fill-rule:nonzero;fill:rgb(13.729858%,12.159729%,12.548828%);fill-opacity:1;" d="M 901.636719 818.875 L 884.832031 810.980469 C 886.375 810.929688 887.917969 810.882812 889.460938 810.816406 L 902.535156 816.960938 L 901.636719 818.875 "/>
<path style=" stroke:none;fill-rule:nonzero;fill:rgb(32.939148%,32.939148%,32.939148%);fill-opacity:1;" d="M 1010.386719 883.445312 L 900.242188 831.734375 L 910.839844 809.242188 C 945.527344 805.535156 978.703125 796.316406 1010.386719 781.605469 L 1010.386719 883.445312 "/>
<g clip-path="url(#clip19)" clip-rule="nonzero">
<path style=" stroke:none;fill-rule:nonzero;fill:rgb(13.729858%,12.159729%,12.548828%);fill-opacity:1;" d="M 1012.5 886.769531 L 897.4375 832.75 L 903.546875 819.773438 L 901.636719 818.875 L 902.535156 816.960938 L 905.941406 809.726562 C 907.582031 809.578125 909.207031 809.414062 910.839844 809.242188 L 900.242188 831.734375 L 1010.386719 883.445312 L 1010.386719 781.605469 C 1011.097656 781.277344 1011.796875 780.945312 1012.5 780.617188 L 1012.5 886.769531 "/>
</g>
<path style=" stroke:none;fill-rule:nonzero;fill:rgb(32.939148%,32.939148%,32.939148%);fill-opacity:1;" d="M 361.25 630.464844 C 353.703125 630.464844 346.566406 625.917969 343.640625 618.480469 L 343.53125 618.257812 L 272.863281 486.730469 C 272.816406 486.640625 272.765625 486.546875 272.707031 486.457031 C 268.46875 479.925781 265.257812 472.640625 262.082031 465.894531 C 258.890625 459.164062 255.757812 452.941406 251.308594 448.53125 C 251.128906 448.355469 250.929688 448.214844 250.707031 448.109375 L 222.480469 435.234375 L 266.769531 341.207031 L 275.355469 345.15625 C 275.636719 345.28125 275.933594 345.347656 276.238281 345.347656 C 276.4375 345.347656 276.640625 345.3125 276.839844 345.253906 C 279.257812 345.914062 281.730469 346.203125 284.199219 346.203125 C 284.207031 346.203125 284.207031 346.203125 284.214844 346.203125 C 293.148438 346.1875 302.097656 342.558594 310.097656 339.070312 C 314.101562 337.320312 317.859375 335.585938 321.195312 334.324219 C 324.492188 333.054688 327.386719 332.289062 329.507812 332.289062 C 329.523438 332.289062 329.542969 332.289062 329.558594 332.289062 C 330.351562 332.289062 331.035156 332.386719 331.613281 332.578125 C 333.675781 333.304688 403.457031 357.84375 439.292969 370.355469 C 439.207031 376.296875 439.265625 382.269531 439.488281 388.289062 L 448.679688 456.648438 L 433.683594 451.773438 C 433.46875 451.707031 433.253906 451.671875 433.03125 451.671875 C 432.15625 451.671875 431.339844 452.21875 431.042969 453.082031 L 429.894531 456.375 C 429.707031 456.910156 429.746094 457.503906 429.996094 458.007812 C 430.25 458.511719 430.695312 458.898438 431.230469 459.082031 L 449.816406 465.117188 L 454.585938 500.628906 C 455.402344 503.523438 456.25 506.386719 457.117188 509.242188 L 418.066406 496.554688 C 417.851562 496.488281 417.628906 496.445312 417.414062 496.445312 C 416.542969 496.445312 415.726562 497 415.417969 497.867188 L 414.488281 500.53125 C 414.304688 501.066406 414.339844 501.660156 414.59375 502.164062 C 414.84375 502.675781 415.296875 503.0625 415.832031 503.234375 L 459.683594 517.480469 C 464.847656 533.476562 470.859375 548.96875 477.707031 563.972656 L 384.199219 533.9375 L 384.117188 533.914062 C 383.726562 533.804688 383.464844 533.746094 383.316406 533.699219 L 362.496094 526.933594 C 362.28125 526.859375 362.058594 526.828125 361.84375 526.828125 C 361.382812 526.828125 360.929688 526.976562 360.558594 527.265625 C 360.003906 527.683594 359.699219 528.351562 359.730469 529.046875 C 361.605469 565.449219 378.777344 598.230469 379.992188 600.523438 C 381.269531 603.8125 381.988281 607.5 382.003906 611.054688 L 380.644531 619.238281 C 380.394531 619.875 380.121094 620.484375 379.816406 621.070312 C 378.332031 623.859375 376.179688 625.984375 373.085938 627.214844 L 368.195312 629.136719 C 365.910156 630.042969 363.558594 630.464844 361.25 630.464844 "/>
<path style=" stroke:none;fill-rule:nonzero;fill:rgb(13.729858%,12.159729%,12.548828%);fill-opacity:1;" d="M 361.25 632.578125 C 352.859375 632.578125 344.933594 627.527344 341.675781 619.253906 L 270.933594 487.605469 L 270.941406 487.605469 C 262.207031 474.160156 258 458.097656 249.824219 450.03125 L 221.574219 437.136719 L 222.480469 435.234375 L 250.707031 448.109375 C 250.929688 448.214844 251.128906 448.355469 251.308594 448.53125 C 255.757812 452.941406 258.890625 459.164062 262.082031 465.894531 C 265.257812 472.640625 268.46875 479.925781 272.707031 486.457031 C 272.765625 486.546875 272.816406 486.640625 272.863281 486.730469 L 343.53125 618.257812 L 343.640625 618.480469 C 346.566406 625.917969 353.703125 630.464844 361.25 630.464844 C 363.558594 630.464844 365.910156 630.042969 368.195312 629.136719 L 373.085938 627.214844 C 376.179688 625.984375 378.332031 623.859375 379.816406 621.070312 C 380.121094 620.484375 380.394531 619.875 380.644531 619.238281 L 379.675781 625.019531 C 378.167969 626.800781 376.238281 628.246094 373.863281 629.179688 L 368.960938 631.109375 C 366.429688 632.105469 363.824219 632.578125 361.25 632.578125 M 382.003906 611.054688 C 381.988281 607.5 381.269531 603.8125 379.992188 600.523438 C 378.777344 598.230469 361.605469 565.449219 359.730469 529.046875 C 359.699219 528.351562 360.003906 527.683594 360.558594 527.265625 C 360.929688 526.976562 361.382812 526.828125 361.84375 526.828125 C 362.058594 526.828125 362.28125 526.859375 362.496094 526.933594 L 383.316406 533.699219 C 383.464844 533.746094 383.726562 533.804688 384.117188 533.914062 L 384.199219 533.9375 L 477.707031 563.972656 C 478.101562 564.835938 478.496094 565.703125 478.902344 566.578125 L 383.546875 535.941406 C 383.257812 535.859375 382.960938 535.800781 382.664062 535.703125 L 361.835938 528.9375 C 363.722656 566.007812 381.914062 599.648438 381.914062 599.648438 C 382.664062 601.542969 383.222656 603.558594 383.597656 605.601562 C 382.910156 607.078125 382.40625 608.671875 382.128906 610.363281 L 382.003906 611.054688 M 459.683594 517.480469 L 415.832031 503.234375 C 415.296875 503.0625 414.84375 502.675781 414.59375 502.164062 C 414.339844 501.660156 414.304688 501.066406 414.488281 500.53125 L 415.417969 497.867188 C 415.726562 497 416.542969 496.445312 417.414062 496.445312 C 417.628906 496.445312 417.851562 496.488281 418.066406 496.554688 L 457.117188 509.242188 C 457.371094 510.066406 457.621094 510.890625 457.875 511.707031 L 417.414062 498.566406 L 416.484375 501.230469 L 458.890625 515.007812 C 459.15625 515.832031 459.417969 516.664062 459.683594 517.480469 M 449.816406 465.117188 L 431.230469 459.082031 C 430.695312 458.898438 430.25 458.511719 429.996094 458.007812 C 429.746094 457.503906 429.707031 456.910156 429.894531 456.375 L 431.042969 453.082031 C 431.339844 452.21875 432.15625 451.671875 433.03125 451.671875 C 433.253906 451.671875 433.46875 451.707031 433.683594 451.773438 L 448.679688 456.648438 L 448.992188 458.964844 L 433.03125 453.785156 L 431.882812 457.066406 L 449.503906 462.792969 L 449.816406 465.117188 M 439.292969 370.355469 C 403.457031 357.84375 333.675781 333.304688 331.613281 332.578125 C 331.035156 332.386719 330.351562 332.289062 329.558594 332.289062 C 329.542969 332.289062 329.523438 332.289062 329.507812 332.289062 C 327.386719 332.289062 324.492188 333.054688 321.195312 334.324219 C 317.859375 335.585938 314.101562 337.320312 310.097656 339.070312 C 302.097656 342.558594 293.148438 346.1875 284.214844 346.203125 C 284.207031 346.203125 284.207031 346.203125 284.199219 346.203125 C 281.730469 346.203125 279.257812 345.914062 276.839844 345.253906 C 276.640625 345.3125 276.4375 345.347656 276.238281 345.347656 C 275.933594 345.347656 275.636719 345.28125 275.355469 345.15625 L 266.769531 341.207031 L 267.667969 339.292969 L 276.238281 343.234375 L 276.34375 342.90625 C 278.902344 343.738281 281.535156 344.101562 284.214844 344.101562 C 292.5625 344.101562 301.304688 340.621094 309.257812 337.136719 C 317.210938 333.65625 324.371094 330.175781 329.558594 330.175781 C 330.53125 330.175781 331.4375 330.300781 332.273438 330.574219 C 332.273438 330.574219 402.78125 355.367188 439.324219 368.136719 C 439.316406 368.871094 439.300781 369.613281 439.292969 370.355469 "/>
<path style=" stroke:none;fill-rule:nonzero;fill:rgb(32.939148%,32.939148%,32.939148%);fill-opacity:1;" d="M 214.710938 441.800781 L 171.816406 422.449219 L 224.378906 310.851562 L 267.164062 330.449219 L 214.710938 441.800781 "/>
<path style=" stroke:none;fill-rule:nonzero;fill:rgb(13.729858%,12.159729%,12.548828%);fill-opacity:1;" d="M 215.742188 444.578125 L 170.910156 424.351562 L 171.816406 422.449219 L 214.710938 441.800781 L 267.164062 330.449219 L 224.378906 310.851562 L 225.277344 308.945312 L 269.984375 329.425781 L 265.746094 338.410156 L 267.667969 339.292969 L 266.769531 341.207031 L 222.480469 435.234375 L 221.574219 437.136719 L 219.652344 436.265625 L 215.742188 444.578125 "/>
<path style=" stroke:none;fill-rule:nonzero;fill:rgb(32.939148%,32.939148%,32.939148%);fill-opacity:1;" d="M 162.214844 432.914062 L 116.722656 413.367188 L 116.722656 245.71875 L 226.859375 295.671875 L 162.214844 432.914062 "/>
<path style=" stroke:none;fill-rule:nonzero;fill:rgb(13.729858%,12.159729%,12.548828%);fill-opacity:1;" d="M 163.253906 435.660156 L 114.613281 414.757812 L 114.613281 242.441406 L 229.683594 294.632812 L 223.355469 308.0625 L 225.277344 308.945312 L 224.378906 310.851562 L 171.816406 422.449219 L 170.910156 424.351562 L 168.988281 423.488281 L 163.253906 435.660156 M 116.722656 245.71875 L 116.722656 413.367188 L 162.214844 432.914062 L 226.859375 295.671875 L 116.722656 245.71875 "/>
<path style=" stroke:none;fill-rule:nonzero;fill:rgb(32.939148%,32.939148%,32.939148%);fill-opacity:1;" d="M 464.210938 923.957031 L 364.730469 894.09375 L 367.410156 885.0625 C 367.527344 884.660156 367.527344 884.238281 367.402344 883.84375 C 367.542969 882.71875 367.609375 881.613281 367.609375 880.5 C 367.609375 875.429688 366.207031 870.480469 364.179688 865.769531 C 361.125 858.691406 356.648438 852.078125 353 846.246094 C 351.179688 843.339844 349.5625 840.636719 348.441406 838.234375 C 347.300781 835.835938 346.699219 833.753906 346.707031 832.214844 C 346.707031 831.890625 346.730469 831.585938 346.78125 831.304688 C 347.203125 829.09375 367.882812 721.324219 371.644531 700.917969 C 371.71875 700.488281 371.660156 700.042969 371.488281 699.65625 L 386.285156 611.054688 C 387.449219 604.09375 393.496094 599.152344 400.332031 599.152344 C 401.109375 599.152344 401.890625 599.21875 402.691406 599.351562 L 406.726562 600.019531 C 413.6875 601.171875 418.628906 607.226562 418.628906 614.058594 C 418.628906 614.839844 418.5625 615.632812 418.429688 616.433594 L 403.796875 704.035156 C 403.605469 705.164062 404.359375 706.246094 405.480469 706.460938 L 407.75 706.890625 C 407.886719 706.914062 408.011719 706.929688 408.152344 706.929688 C 408.574219 706.929688 408.992188 706.800781 409.347656 706.550781 C 409.820312 706.222656 410.132812 705.726562 410.222656 705.164062 L 429.375 590.5 C 430.804688 581.914062 438.261719 575.832031 446.675781 575.832031 C 447.632812 575.832031 448.605469 575.90625 449.585938 576.074219 L 454.4375 576.890625 C 463.023438 578.316406 469.101562 585.765625 469.101562 594.179688 C 469.101562 595.144531 469.027344 596.117188 468.863281 597.097656 L 449.554688 712.695312 C 449.363281 713.828125 450.113281 714.90625 451.242188 715.121094 L 454.660156 715.765625 C 454.789062 715.789062 454.921875 715.804688 455.046875 715.804688 C 455.484375 715.804688 455.90625 715.675781 456.257812 715.425781 C 456.730469 715.105469 457.042969 714.59375 457.132812 714.042969 L 477.8125 590.261719 C 478.605469 585.507812 481.246094 581.542969 484.875 578.953125 C 492.972656 594.988281 502.113281 610.429688 512.21875 625.292969 L 496.148438 721.515625 C 495.960938 722.644531 496.710938 723.726562 497.839844 723.941406 L 500.613281 724.460938 C 500.746094 724.484375 500.867188 724.5 501 724.5 C 501.429688 724.5 501.859375 724.367188 502.214844 724.121094 C 502.675781 723.800781 502.996094 723.289062 503.085938 722.734375 L 517.984375 633.566406 C 527.933594 647.472656 538.773438 660.863281 550.527344 673.714844 L 538.136719 749.46875 L 538.121094 749.550781 C 538.078125 749.949219 538.054688 750.21875 538.027344 750.386719 L 534.425781 771.980469 C 534.308594 772.664062 534.539062 773.367188 535.035156 773.84375 C 535.429688 774.234375 535.96875 774.4375 536.503906 774.4375 C 536.644531 774.4375 536.785156 774.429688 536.925781 774.398438 C 572.640625 767.15625 602.511719 745.320312 604.613281 743.777344 C 608.820312 741.359375 613.925781 739.910156 618.621094 739.910156 C 618.628906 739.910156 618.636719 739.910156 618.652344 739.910156 C 620.0625 739.910156 621.441406 740.042969 622.742188 740.304688 L 626.363281 741.476562 C 626.40625 741.5 626.449219 741.519531 626.488281 741.535156 C 628.765625 742.640625 630.65625 744.28125 632.03125 746.65625 L 634.65625 751.210938 L 636.488281 750.15625 L 634.664062 751.210938 C 636.386719 754.195312 637.203125 757.445312 637.203125 760.664062 C 637.203125 767.203125 633.8125 773.5625 627.75 777.070312 L 627.542969 777.203125 L 507.9375 866.570312 C 507.855469 866.628906 507.765625 866.691406 507.683594 866.765625 C 501.851562 871.9375 495.101562 876.1875 488.898438 880.335938 C 482.703125 884.503906 477.003906 888.527344 473.308594 893.585938 C 473.175781 893.773438 473.0625 894.003906 472.996094 894.226562 L 464.210938 923.957031 "/>
<path style=" stroke:none;fill-rule:nonzero;fill:rgb(13.729858%,12.159729%,12.548828%);fill-opacity:1;" d="M 466.230469 924.558594 L 464.210938 923.957031 L 472.996094 894.226562 C 473.0625 894.003906 473.175781 893.773438 473.308594 893.585938 C 477.003906 888.527344 482.703125 884.503906 488.898438 880.335938 C 495.101562 876.1875 501.851562 871.9375 507.683594 866.765625 C 507.765625 866.691406 507.855469 866.628906 507.9375 866.570312 L 627.542969 777.203125 L 627.75 777.070312 C 633.8125 773.5625 637.203125 767.203125 637.203125 760.664062 C 637.203125 757.445312 636.386719 754.195312 634.664062 751.210938 L 636.488281 750.15625 C 642.308594 760.210938 638.871094 773.085938 628.808594 778.902344 L 509.085938 868.351562 C 497.058594 878.992188 481.765625 885.535156 475.023438 894.828125 L 466.230469 924.558594 M 364.730469 894.09375 L 362.710938 893.492188 L 365.390625 884.460938 L 365.183594 884.429688 C 368.648438 863.683594 342.78125 842.410156 344.703125 830.941406 C 344.703125 830.941406 365.769531 721.136719 369.566406 700.53125 L 369.210938 700.472656 L 382.714844 619.660156 C 381.996094 621.648438 380.988281 623.460938 379.675781 625.019531 L 380.644531 619.238281 L 382.003906 611.054688 L 382.128906 610.363281 C 382.40625 608.671875 382.910156 607.078125 383.597656 605.601562 C 383.933594 607.507812 384.105469 609.4375 384.097656 611.351562 L 384.207031 610.710938 C 385.542969 602.714844 392.480469 597.039062 400.332031 597.039062 C 401.222656 597.039062 402.128906 597.113281 403.039062 597.261719 L 407.070312 597.941406 C 415.988281 599.425781 422.003906 607.871094 420.515625 616.78125 L 405.875 704.390625 L 408.144531 704.820312 L 427.296875 590.152344 C 428.90625 580.535156 437.238281 573.722656 446.683594 573.722656 C 447.753906 573.722656 448.84375 573.8125 449.941406 573.992188 L 454.78125 574.808594 C 465.507812 576.601562 472.738281 586.730469 470.941406 597.445312 L 451.632812 713.042969 L 455.054688 713.695312 L 475.734375 589.914062 C 476.640625 584.476562 479.71875 579.949219 483.925781 577.054688 C 484.238281 577.6875 484.550781 578.324219 484.875 578.953125 C 481.246094 581.542969 478.605469 585.507812 477.8125 590.261719 L 457.132812 714.042969 C 457.042969 714.59375 456.730469 715.105469 456.257812 715.425781 C 455.90625 715.675781 455.484375 715.804688 455.046875 715.804688 C 454.921875 715.804688 454.789062 715.789062 454.660156 715.765625 L 451.242188 715.121094 C 450.113281 714.90625 449.363281 713.828125 449.554688 712.695312 L 468.863281 597.097656 C 469.027344 596.117188 469.101562 595.144531 469.101562 594.179688 C 469.101562 585.765625 463.023438 578.316406 454.4375 576.890625 L 449.585938 576.074219 C 448.605469 575.90625 447.632812 575.832031 446.675781 575.832031 C 438.261719 575.832031 430.804688 581.914062 429.375 590.5 L 410.222656 705.164062 C 410.132812 705.726562 409.820312 706.222656 409.347656 706.550781 C 408.992188 706.800781 408.574219 706.929688 408.152344 706.929688 C 408.011719 706.929688 407.886719 706.914062 407.75 706.890625 L 405.480469 706.460938 C 404.359375 706.246094 403.605469 705.164062 403.796875 704.035156 L 418.429688 616.433594 C 418.5625 615.632812 418.628906 614.839844 418.628906 614.058594 C 418.628906 607.226562 413.6875 601.171875 406.726562 600.019531 L 402.691406 599.351562 C 401.890625 599.21875 401.109375 599.152344 400.332031 599.152344 C 393.496094 599.152344 387.449219 604.09375 386.285156 611.054688 L 371.488281 699.65625 C 371.660156 700.042969 371.71875 700.488281 371.644531 700.917969 C 367.882812 721.324219 347.203125 829.09375 346.78125 831.304688 C 346.730469 831.585938 346.707031 831.890625 346.707031 832.214844 C 346.699219 833.753906 347.300781 835.835938 348.441406 838.234375 C 349.5625 840.636719 351.179688 843.339844 353 846.246094 C 356.648438 852.078125 361.125 858.691406 364.179688 865.769531 C 366.207031 870.480469 367.609375 875.429688 367.609375 880.5 C 367.609375 881.613281 367.542969 882.71875 367.402344 883.84375 C 367.527344 884.238281 367.527344 884.660156 367.410156 885.0625 L 364.730469 894.09375 M 536.503906 774.4375 C 535.96875 774.4375 535.429688 774.234375 535.035156 773.84375 C 534.539062 773.367188 534.308594 772.664062 534.425781 771.980469 L 538.027344 750.386719 C 538.054688 750.21875 538.078125 749.949219 538.121094 749.550781 L 538.136719 749.46875 L 550.527344 673.714844 C 551.136719 674.371094 551.738281 675.03125 552.347656 675.683594 L 540.222656 749.808594 C 540.183594 750.113281 540.164062 750.425781 540.109375 750.730469 L 536.503906 772.328125 C 572.886719 764.976562 603.457031 742.003906 603.457031 742.003906 C 607.136719 739.882812 611.402344 738.457031 615.625 737.988281 L 622.742188 740.304688 C 621.441406 740.042969 620.0625 739.910156 618.652344 739.910156 C 618.636719 739.910156 618.628906 739.910156 618.621094 739.910156 C 613.925781 739.910156 608.820312 741.359375 604.613281 743.777344 C 602.511719 745.320312 572.640625 767.15625 536.925781 774.398438 C 536.785156 774.429688 536.644531 774.4375 536.503906 774.4375 M 634.65625 751.210938 L 632.03125 746.65625 C 630.65625 744.28125 628.765625 742.640625 626.488281 741.535156 C 626.449219 741.519531 626.40625 741.5 626.363281 741.476562 L 632.320312 743.414062 C 632.890625 744.074219 633.402344 744.800781 633.863281 745.59375 L 636.488281 750.15625 L 634.65625 751.210938 M 501 724.5 C 500.867188 724.5 500.746094 724.484375 500.613281 724.460938 L 497.839844 723.941406 C 496.710938 723.726562 495.960938 722.644531 496.148438 721.515625 L 512.21875 625.292969 C 512.796875 626.132812 513.367188 626.96875 513.941406 627.808594 L 498.230469 721.859375 L 501.007812 722.390625 L 516.253906 631.125 C 516.828125 631.933594 517.40625 632.75 517.984375 633.566406 L 503.085938 722.734375 C 502.996094 723.289062 502.675781 723.800781 502.214844 724.121094 C 501.859375 724.367188 501.429688 724.5 501 724.5 "/>
<path style=" stroke:none;fill-rule:nonzero;fill:rgb(32.939148%,32.939148%,32.939148%);fill-opacity:1;" d="M 458.832031 975.882812 L 340.867188 940.476562 L 354.214844 895.347656 L 472.089844 930.726562 L 458.832031 975.882812 "/>
<path style=" stroke:none;fill-rule:nonzero;fill:rgb(13.729858%,12.159729%,12.548828%);fill-opacity:1;" d="M 460.855469 976.484375 L 458.832031 975.882812 L 472.089844 930.726562 L 354.214844 895.347656 L 340.867188 940.476562 L 338.847656 939.867188 L 352.785156 892.71875 L 362.109375 895.515625 L 362.710938 893.492188 L 364.730469 894.09375 L 464.210938 923.957031 L 466.230469 924.558594 L 465.636719 926.585938 L 474.703125 929.308594 L 460.855469 976.484375 "/>
<path style=" stroke:none;fill-rule:nonzero;fill:rgb(32.939148%,32.939148%,32.939148%);fill-opacity:1;" d="M 463.609375 1010.386719 L 305.265625 1010.386719 L 325.78125 940.355469 L 471.058594 983.957031 L 463.609375 1010.386719 "/>
<g clip-path="url(#clip20)" clip-rule="nonzero">
<path style=" stroke:none;fill-rule:nonzero;fill:rgb(13.729858%,12.159729%,12.548828%);fill-opacity:1;" d="M 440.238281 1012.5 L 302.453125 1012.5 L 324.34375 937.722656 L 338.253906 941.898438 L 338.847656 939.867188 L 340.867188 940.476562 L 458.832031 975.882812 L 460.855469 976.484375 L 460.261719 978.511719 L 473.65625 982.539062 L 465.210938 1012.5 L 440.238281 1012.5 M 465.210938 1012.5 L 465.210938 1010.386719 L 465.210938 1012.5 M 325.78125 940.355469 L 305.265625 1010.386719 L 463.609375 1010.386719 L 471.058594 983.957031 L 325.78125 940.355469 "/>
</g>
<path style=" stroke:none;fill-rule:nonzero;fill:rgb(32.939148%,32.939148%,32.939148%);fill-opacity:1;" d="M 629.011719 737.898438 L 583.539062 723.125 C 577.515625 721.167969 573.6875 715.566406 573.6875 709.5625 C 573.6875 708.109375 573.910156 706.632812 574.390625 705.164062 L 575.652344 701.28125 C 576.046875 700.058594 576.59375 698.9375 577.253906 697.90625 C 594.507812 711.238281 611.757812 724.566406 629.011719 737.898438 "/>
<path style=" stroke:none;fill-rule:nonzero;fill:rgb(13.729858%,12.159729%,12.548828%);fill-opacity:1;" d="M 632.320312 743.414062 L 626.363281 741.476562 L 622.742188 740.304688 L 615.625 737.988281 C 616.625 737.878906 617.621094 737.824219 618.613281 737.824219 C 620.292969 737.824219 621.953125 737.988281 623.527344 738.332031 L 582.886719 725.128906 C 574.300781 722.339844 569.589844 713.109375 572.378906 704.515625 L 573.648438 700.628906 C 574.117188 699.167969 574.785156 697.839844 575.59375 696.628906 C 576.148438 697.058594 576.699219 697.476562 577.253906 697.90625 C 576.59375 698.9375 576.046875 700.058594 575.652344 701.28125 L 574.390625 705.164062 C 573.910156 706.632812 573.6875 708.109375 573.6875 709.5625 C 573.6875 715.566406 577.515625 721.167969 583.539062 723.125 L 629.011719 737.898438 C 630.671875 739.175781 632.320312 740.453125 633.96875 741.734375 L 626.894531 739.429688 C 628.957031 740.339844 630.8125 741.640625 632.320312 743.414062 "/>
</g>
</svg>
