<?xml version="1.0" encoding="UTF-8"?>
<svg xmlns="http://www.w3.org/2000/svg" xmlns:xlink="http://www.w3.org/1999/xlink" width="1125pt" height="1124.99995pt" viewBox="0 0 1125 1124.99995" version="1.2">
<defs>
<clipPath id="clip1">
  <path d="M 202.5 112.5 L 922.5 112.5 L 922.5 1012.5 L 202.5 1012.5 Z M 202.5 112.5 "/>
</clipPath>
</defs>
<g id="surface1">
<g clip-path="url(#clip1)" clip-rule="nonzero">
<path style=" stroke:none;fill-rule:nonzero;fill:rgb(32.548523%,33.729553%,36.859131%);fill-opacity:1;" d="M 232.5 142.5 L 892.5 142.5 L 892.5 202.5 L 232.5 202.5 Z M 862.5 322.5 L 742.5 322.5 L 742.5 292.5 L 772.5 292.5 L 772.5 262.5 L 352.5 262.5 L 352.5 292.5 L 382.5 292.5 L 382.5 322.5 L 262.5 322.5 L 262.5 232.5 L 862.5 232.5 Z M 473.730469 292.5 L 651.269531 292.5 C 644.121094 335.039062 607.03125 367.5 562.5 367.5 C 517.96875 367.5 480.878906 335.039062 473.730469 292.5 Z M 712.5 652.5 L 562.5 652.5 L 562.5 592.5 C 562.5 567.65625 542.34375 547.5 517.5 547.5 L 502.5 547.5 C 490.898438 547.5 480.46875 552.011719 472.5 559.21875 L 472.5 532.5 L 442.5 532.5 L 442.5 622.5 L 457.5 622.5 L 457.5 652.5 L 412.5 652.5 L 412.5 292.5 L 442.5 292.5 L 442.5 502.5 L 472.5 502.5 L 472.5 356.601562 C 494.53125 381.621094 526.640625 397.5 562.5 397.5 C 598.359375 397.5 630.46875 381.621094 652.5 356.601562 L 652.5 502.5 L 682.5 502.5 L 682.5 292.5 L 712.5 292.5 Z M 577.5 922.5 L 423.105469 922.5 L 352.5 724.921875 L 352.5 538.710938 L 382.5 508.710938 L 382.5 667.5 C 382.5 675.761719 389.238281 682.5 397.5 682.5 L 457.5 682.5 L 457.5 742.5 L 487.5 742.5 L 487.5 592.5 C 487.5 584.238281 494.238281 577.5 502.5 577.5 L 517.5 577.5 C 525.761719 577.5 532.5 584.238281 532.5 592.5 L 532.5 667.5 C 532.5 669.550781 532.910156 671.542969 533.730469 673.417969 L 577.5 775.605469 Z M 577.5 982.5 L 427.5 982.5 L 427.5 952.5 L 577.5 952.5 Z M 232.5 352.5 L 382.5 352.5 L 382.5 466.289062 L 326.894531 521.894531 C 324.082031 524.707031 322.5 528.515625 322.5 532.5 L 322.5 727.5 C 322.5 729.199219 322.792969 730.898438 323.378906 732.539062 L 397.5 940.078125 L 397.5 997.5 C 397.5 1005.761719 404.238281 1012.5 412.5 1012.5 L 592.5 1012.5 C 600.761719 1012.5 607.5 1005.761719 607.5 997.5 L 607.5 772.5 C 607.5 770.449219 607.089844 768.457031 606.269531 766.582031 L 570.234375 682.5 L 727.5 682.5 C 735.761719 682.5 742.5 675.761719 742.5 667.5 L 742.5 352.5 L 892.5 352.5 L 892.5 232.5 L 922.5 232.5 L 922.5 112.5 L 202.5 112.5 L 202.5 232.5 L 232.5 232.5 L 232.5 352.5 "/>
</g>
<path style=" stroke:none;fill-rule:nonzero;fill:rgb(32.548523%,33.729553%,36.859131%);fill-opacity:1;" d="M 322.5 262.5 L 292.5 262.5 L 292.5 292.5 L 322.5 292.5 L 322.5 262.5 "/>
<path style=" stroke:none;fill-rule:nonzero;fill:rgb(32.548523%,33.729553%,36.859131%);fill-opacity:1;" d="M 832.5 262.5 L 802.5 262.5 L 802.5 292.5 L 832.5 292.5 L 832.5 262.5 "/>
<path style=" stroke:none;fill-rule:nonzero;fill:rgb(32.548523%,33.729553%,36.859131%);fill-opacity:1;" d="M 652.5 592.5 L 592.5 592.5 L 592.5 622.5 L 682.5 622.5 L 682.5 532.5 L 652.5 532.5 L 652.5 592.5 "/>
<path style=" stroke:none;fill-rule:nonzero;fill:rgb(32.548523%,33.729553%,36.859131%);fill-opacity:1;" d="M 562.5 487.5 C 554.238281 487.5 547.5 480.761719 547.5 472.5 C 547.5 464.238281 554.238281 457.5 562.5 457.5 C 570.761719 457.5 577.5 464.238281 577.5 472.5 C 577.5 480.761719 570.761719 487.5 562.5 487.5 Z M 607.5 472.5 C 607.5 447.65625 587.34375 427.5 562.5 427.5 C 537.65625 427.5 517.5 447.65625 517.5 472.5 C 517.5 497.34375 537.65625 517.5 562.5 517.5 C 587.34375 517.5 607.5 497.34375 607.5 472.5 "/>
</g>
</svg>
