<?xml version="1.0" encoding="UTF-8"?>
<svg xmlns="http://www.w3.org/2000/svg" xmlns:xlink="http://www.w3.org/1999/xlink" width="1125pt" height="1124.99995pt" viewBox="0 0 1125 1124.99995" version="1.2">
<g id="surface1">
<path style=" stroke:none;fill-rule:nonzero;fill:rgb(45.098877%,45.098877%,45.098877%);fill-opacity:1;" d="M 309.550781 746.972656 L 316.539062 746.972656 C 336.101562 745.574219 354.269531 735.792969 366.847656 720.417969 C 379.425781 705.046875 385.015625 685.480469 383.617188 665.914062 C 379.425781 625.386719 344.488281 596.039062 302.5625 598.835938 C 262.035156 603.027344 232.6875 639.363281 235.480469 679.890625 C 239.675781 717.625 271.816406 746.972656 309.550781 746.972656 Z M 305.355469 626.785156 L 309.550781 626.785156 C 333.308594 626.785156 352.871094 644.953125 355.667969 668.710938 C 357.066406 681.289062 352.871094 692.46875 345.886719 702.25 C 338.898438 712.035156 326.320312 717.625 315.140625 719.023438 C 289.984375 721.816406 267.625 702.25 264.828125 677.097656 C 262.035156 651.941406 280.203125 629.582031 305.355469 626.785156 Z M 305.355469 626.785156 "/>
<path style=" stroke:none;fill-rule:nonzero;fill:rgb(45.098877%,45.098877%,45.098877%);fill-opacity:1;" d="M 140.449219 651.941406 C 123.679688 654.734375 112.5 670.109375 113.898438 685.480469 L 115.296875 695.265625 C 116.691406 710.636719 130.667969 723.214844 147.4375 723.214844 L 157.21875 723.214844 C 162.8125 739.984375 171.195312 753.960938 180.976562 767.933594 L 175.386719 776.320312 C 165.605469 790.292969 168.402344 808.460938 180.976562 818.246094 L 189.363281 825.234375 C 201.941406 835.015625 221.507812 833.617188 232.6875 822.4375 L 239.675781 815.449219 C 255.046875 822.4375 271.816406 828.027344 288.585938 830.824219 L 289.984375 840.605469 C 292.78125 855.976562 306.753906 867.160156 320.730469 867.160156 L 323.523438 867.160156 L 333.308594 865.761719 C 350.078125 864.363281 362.65625 850.386719 362.65625 833.617188 L 362.65625 823.835938 C 379.425781 818.246094 394.796875 809.859375 407.375 800.078125 L 415.761719 805.667969 C 421.351562 809.859375 426.941406 811.257812 433.929688 811.257812 C 443.710938 811.257812 452.097656 807.066406 459.082031 800.078125 L 466.070312 791.691406 C 475.855469 779.113281 475.855469 760.945312 463.277344 748.371094 L 456.289062 741.382812 C 463.277344 726.007812 468.867188 709.238281 471.660156 692.46875 L 481.445312 691.070312 C 498.214844 688.277344 509.394531 672.902344 507.996094 657.53125 L 505.203125 649.144531 C 503.804688 633.773438 489.828125 621.195312 473.058594 621.195312 L 463.277344 621.195312 C 457.6875 605.824219 449.300781 590.449219 439.519531 576.476562 L 445.109375 568.089844 C 454.890625 554.113281 452.097656 535.949219 439.519531 526.164062 L 431.132812 519.175781 C 418.554688 509.394531 398.992188 510.792969 387.808594 521.972656 L 380.824219 528.960938 C 365.449219 521.972656 350.078125 516.382812 333.308594 514.984375 L 331.910156 505.203125 C 329.113281 489.828125 313.742188 477.25 298.371094 478.648438 L 288.585938 480.046875 C 271.816406 481.445312 259.238281 495.417969 259.238281 512.191406 L 259.238281 523.371094 C 243.867188 528.960938 228.492188 537.34375 214.519531 547.128906 L 206.132812 541.539062 C 193.554688 533.152344 173.992188 535.949219 164.207031 547.128906 L 155.824219 551.320312 C 146.039062 563.898438 146.039062 582.066406 158.617188 594.644531 L 165.605469 601.628906 C 158.617188 617.003906 153.027344 633.773438 150.234375 649.144531 Z M 165.605469 675.699219 C 171.195312 674.300781 176.785156 668.710938 176.785156 663.121094 C 178.183594 642.160156 183.773438 623.992188 194.953125 605.824219 C 197.75 600.234375 197.75 593.246094 192.160156 589.050781 L 176.785156 575.078125 C 175.386719 573.679688 175.386719 570.886719 176.785156 569.488281 L 183.773438 561.101562 C 185.171875 559.703125 187.964844 559.703125 189.363281 561.101562 L 206.132812 573.679688 C 211.722656 577.871094 218.710938 576.476562 222.902344 572.28125 C 238.277344 559.703125 256.445312 549.921875 274.613281 544.332031 C 280.203125 542.933594 284.394531 537.34375 284.394531 530.355469 L 284.394531 509.394531 C 284.394531 507.996094 285.792969 505.203125 287.1875 505.203125 L 298.371094 503.804688 C 299.765625 503.804688 302.5625 505.203125 302.5625 506.597656 L 306.753906 527.5625 C 308.152344 534.550781 313.742188 538.742188 319.332031 538.742188 C 338.898438 540.140625 358.460938 545.730469 376.628906 555.511719 C 382.21875 558.308594 389.207031 558.308594 393.402344 552.71875 L 408.773438 537.34375 C 410.171875 535.945312 412.964844 535.945312 414.363281 537.34375 L 422.75 544.332031 C 424.144531 545.730469 424.144531 548.523438 422.75 549.921875 L 410.171875 566.691406 C 405.976562 572.28125 407.375 579.269531 411.566406 583.460938 C 425.542969 598.835938 433.929688 617.003906 439.519531 635.171875 C 440.917969 640.761719 446.507812 644.953125 453.492188 644.953125 L 474.457031 644.953125 C 475.855469 644.953125 478.648438 646.351562 478.648438 647.75 L 477.25 661.722656 C 477.25 663.121094 475.855469 665.917969 474.457031 665.917969 L 454.890625 670.109375 C 447.902344 671.507812 443.710938 677.097656 443.710938 682.6875 C 442.3125 703.648438 436.722656 721.816406 426.941406 739.984375 C 424.144531 745.574219 424.144531 752.5625 429.734375 756.753906 L 443.710938 770.730469 C 445.109375 772.128906 445.109375 774.921875 443.710938 776.320312 L 436.722656 784.703125 C 436.722656 786.101562 435.324219 786.101562 433.929688 786.101562 C 432.53125 786.101562 432.53125 786.101562 432.53125 786.101562 L 415.761719 774.921875 C 410.171875 770.730469 403.183594 772.128906 398.992188 776.320312 C 383.617188 790.292969 365.449219 798.679688 345.886719 804.269531 C 340.296875 805.667969 336.101562 811.257812 336.101562 818.246094 L 336.101562 837.808594 C 336.101562 839.207031 334.703125 842.003906 333.308594 842.003906 L 322.128906 843.402344 C 320.730469 843.402344 319.332031 842.003906 317.933594 840.605469 L 313.742188 821.039062 C 312.34375 814.050781 306.753906 809.859375 301.164062 809.859375 C 280.203125 808.460938 262.035156 802.871094 243.867188 791.691406 C 241.070312 790.292969 239.675781 790.292969 236.878906 790.292969 C 232.6875 790.292969 229.890625 791.691406 227.097656 794.488281 L 213.121094 808.460938 C 211.722656 809.859375 208.929688 809.859375 207.53125 808.460938 L 199.144531 801.476562 C 197.75 797.28125 196.351562 794.488281 197.75 793.089844 L 208.929688 776.320312 C 213.121094 770.730469 211.722656 763.742188 207.53125 759.550781 C 193.554688 744.175781 185.171875 726.007812 179.582031 706.445312 C 178.183594 700.855469 172.59375 695.265625 165.605469 696.660156 L 144.644531 696.660156 C 143.246094 696.660156 140.449219 695.265625 140.449219 693.867188 L 141.847656 682.6875 C 141.847656 681.289062 143.246094 678.492188 144.644531 678.492188 Z M 165.605469 675.699219 "/>
<path style=" stroke:none;fill-rule:nonzero;fill:rgb(45.098877%,45.098877%,45.098877%);fill-opacity:1;" d="M 741.382812 629.582031 C 759.550781 629.582031 779.113281 623.992188 795.886719 614.207031 C 818.246094 600.234375 835.015625 576.476562 840.605469 549.921875 C 846.195312 523.371094 842.003906 496.816406 826.628906 473.058594 C 822.4375 466.070312 814.050781 464.675781 807.066406 468.867188 C 800.078125 473.058594 798.679688 481.445312 802.871094 488.429688 C 814.050781 505.203125 816.847656 524.765625 812.65625 544.332031 C 808.460938 563.898438 797.28125 580.667969 780.511719 590.449219 C 745.574219 612.808594 700.855469 601.628906 678.492188 568.089844 C 667.3125 551.320312 664.519531 531.753906 668.710938 512.1875 C 672.902344 492.625 684.082031 475.855469 700.855469 466.070312 C 714.828125 456.289062 732.996094 453.492188 749.765625 454.890625 C 756.753906 456.289062 765.140625 450.699219 765.140625 442.3125 C 766.539062 435.324219 760.945312 426.941406 752.5625 426.941406 C 728.804688 424.144531 705.046875 429.734375 684.082031 442.3125 C 661.722656 456.289062 644.953125 480.046875 639.363281 506.597656 C 633.773438 533.152344 637.964844 559.703125 653.339844 583.460938 C 674.300781 612.808594 707.839844 629.582031 741.382812 629.582031 Z M 741.382812 629.582031 "/>
<path style=" stroke:none;fill-rule:nonzero;fill:rgb(45.098877%,45.098877%,45.098877%);fill-opacity:1;" d="M 506.597656 502.40625 C 487.035156 505.203125 473.058594 524.765625 474.457031 544.332031 L 475.855469 558.308594 C 477.25 577.871094 494.023438 593.246094 514.984375 593.246094 L 533.152344 593.246094 C 541.539062 617.003906 552.71875 640.761719 569.488281 661.722656 L 559.703125 675.699219 C 548.523438 691.070312 551.320312 714.828125 566.691406 727.40625 L 577.871094 737.1875 C 591.847656 749.765625 617.003906 748.371094 629.582031 734.394531 L 642.160156 721.816406 C 665.917969 734.394531 691.070312 741.382812 716.226562 744.175781 L 719.023438 760.945312 C 721.816406 779.113281 738.585938 793.089844 756.753906 793.089844 L 760.945312 793.089844 L 774.921875 791.691406 C 794.488281 790.292969 809.859375 772.128906 809.859375 752.5625 L 809.859375 735.792969 C 835.015625 727.40625 857.375 716.226562 878.339844 699.457031 L 892.3125 709.238281 C 899.300781 713.429688 906.289062 716.226562 914.671875 716.226562 C 925.855469 716.226562 937.035156 710.636719 944.023438 702.25 L 953.804688 691.070312 C 966.382812 675.699219 964.984375 651.941406 951.007812 639.363281 L 938.429688 626.785156 C 949.613281 604.425781 957.996094 579.269531 960.792969 552.71875 L 978.960938 549.921875 C 998.523438 547.128906 1012.5 527.5625 1011.101562 507.996094 L 1009.703125 494.023438 C 1008.308594 474.457031 991.539062 459.082031 970.574219 459.082031 L 952.40625 459.082031 C 944.023438 435.324219 932.839844 411.566406 916.070312 392.003906 L 927.25 376.628906 C 938.429688 359.859375 935.636719 337.5 920.265625 324.921875 L 909.082031 315.140625 C 895.109375 302.5625 869.953125 303.960938 857.375 317.933594 L 844.796875 331.910156 C 822.4375 320.730469 797.28125 312.34375 772.128906 309.550781 L 769.332031 291.382812 C 766.539062 271.816406 746.972656 257.839844 727.40625 259.238281 L 713.429688 260.636719 C 693.867188 262.035156 678.492188 280.203125 678.492188 299.765625 L 678.492188 317.933594 C 654.734375 326.320312 630.976562 337.5 611.414062 352.871094 L 596.039062 341.691406 C 580.667969 330.511719 556.910156 334.703125 544.332031 348.679688 L 534.550781 359.859375 C 521.972656 375.234375 523.371094 398.992188 537.34375 411.566406 L 549.921875 424.144531 C 538.742188 446.507812 530.355469 471.660156 527.5625 496.816406 Z M 551.320312 512.1875 C 554.113281 482.839844 562.5 456.289062 576.476562 431.132812 C 579.269531 425.542969 579.269531 418.554688 573.679688 414.363281 L 552.71875 393.402344 C 548.523438 389.207031 548.523438 383.617188 551.320312 379.425781 L 561.101562 368.246094 C 562.5 365.449219 566.691406 364.054688 569.488281 364.054688 C 570.886719 364.054688 573.679688 364.054688 575.078125 365.449219 L 598.835938 382.21875 C 604.425781 386.414062 611.414062 385.015625 615.605469 380.824219 C 637.964844 362.65625 663.121094 348.679688 691.070312 341.691406 C 696.660156 340.296875 700.855469 334.703125 700.855469 327.71875 L 700.855469 298.371094 C 700.855469 292.78125 705.046875 288.585938 710.636719 287.1875 L 726.007812 285.792969 C 731.597656 285.792969 735.792969 289.984375 737.1875 294.175781 L 742.78125 323.523438 C 744.175781 330.511719 749.765625 334.703125 755.355469 334.703125 C 784.703125 336.101562 811.257812 344.488281 836.414062 359.859375 C 842.003906 362.65625 848.992188 362.65625 853.183594 357.066406 L 874.144531 336.101562 C 876.941406 331.910156 885.324219 331.910156 888.121094 334.703125 L 899.300781 344.488281 C 903.492188 347.28125 904.890625 354.269531 900.699219 358.460938 L 883.929688 382.21875 C 879.734375 387.808594 881.132812 394.796875 885.324219 398.992188 C 904.890625 421.351562 917.46875 446.507812 925.855469 474.457031 C 927.25 480.046875 932.839844 484.238281 939.828125 484.238281 L 969.175781 484.238281 C 974.765625 484.238281 978.960938 488.429688 980.355469 494.023438 L 981.753906 507.996094 C 981.753906 513.585938 977.5625 519.175781 973.371094 519.175781 L 945.417969 524.765625 C 938.429688 526.164062 934.238281 531.753906 934.238281 537.34375 C 932.839844 566.691406 923.058594 594.644531 909.082031 619.796875 C 906.289062 625.386719 906.289062 632.375 911.878906 636.566406 L 931.445312 656.132812 C 935.636719 660.324219 935.636719 665.917969 932.839844 670.109375 L 923.058594 681.289062 C 921.660156 684.082031 917.46875 685.480469 914.675781 685.480469 C 913.277344 685.480469 910.480469 685.480469 909.082031 684.082031 L 886.722656 668.710938 C 881.132812 664.519531 874.144531 665.917969 869.953125 670.109375 C 847.59375 689.675781 822.4375 703.648438 794.488281 710.636719 C 788.898438 712.035156 784.703125 717.625 784.703125 724.613281 L 784.703125 752.5625 C 784.703125 758.152344 780.511719 762.34375 774.921875 763.742188 L 759.550781 765.140625 C 753.960938 765.140625 749.765625 760.945312 748.371094 756.753906 L 742.78125 730.203125 C 741.382812 723.214844 735.792969 719.023438 730.203125 719.023438 C 700.855469 717.625 672.902344 707.839844 647.75 693.867188 C 644.953125 692.46875 643.554688 692.46875 640.761719 692.46875 C 636.566406 692.46875 633.773438 693.867188 630.976562 696.660156 L 611.414062 716.226562 C 608.617188 720.417969 600.234375 720.417969 597.4375 717.625 L 586.257812 707.839844 C 582.066406 705.046875 580.667969 698.058594 584.859375 693.867188 L 600.234375 671.507812 C 604.425781 665.917969 603.027344 658.929688 598.835938 654.734375 C 579.269531 632.375 566.691406 607.21875 558.308594 579.269531 C 556.910156 573.679688 551.320312 568.089844 544.332031 569.488281 L 516.382812 569.488281 C 510.792969 569.488281 506.597656 565.296875 505.203125 559.703125 L 503.804688 545.730469 C 503.804688 540.140625 507.996094 534.550781 512.1875 534.550781 L 540.140625 528.960938 C 545.730469 524.765625 549.921875 519.175781 551.320312 512.1875 Z M 551.320312 512.1875 "/>
</g>
</svg>
