<?xml version="1.0" encoding="UTF-8"?>
<svg xmlns="http://www.w3.org/2000/svg" xmlns:xlink="http://www.w3.org/1999/xlink" width="1125pt" height="1124.99995pt" viewBox="0 0 1125 1124.99995" version="1.2">
<defs>
<clipPath id="clip1">
  <path d="M 179.589844 112.5 L 945 112.5 L 945 1012.5 L 179.589844 1012.5 Z M 179.589844 112.5 "/>
</clipPath>
</defs>
<g id="surface1">
<g clip-path="url(#clip1)" clip-rule="nonzero">
<path style=" stroke:none;fill-rule:nonzero;fill:rgb(100%,100%,100%);fill-opacity:1;" d="M 562.464844 1012.5 C 612.1875 1012.5 652.457031 972.226562 652.457031 922.5 L 472.472656 922.5 C 472.472656 972.226562 512.746094 1012.5 562.464844 1012.5 Z M 854.945312 742.5 L 854.945312 495 C 854.945312 356.625 758.875 241.199219 629.960938 210.601562 L 629.960938 180 C 629.960938 142.648438 599.8125 112.5 562.464844 112.5 C 525.117188 112.5 494.972656 142.648438 494.972656 180 L 494.972656 210.601562 C 366.054688 241.199219 269.988281 356.625 269.988281 495 L 269.988281 742.5 L 179.996094 832.5 L 179.996094 877.5 L 944.9375 877.5 L 944.9375 832.5 Z M 764.949219 787.5 L 359.980469 787.5 L 359.980469 495 C 359.980469 383.175781 450.648438 292.5 562.464844 292.5 C 674.28125 292.5 764.949219 383.175781 764.949219 495 Z M 764.949219 787.5 "/>
</g>
</g>
</svg>
