<?xml version="1.0" encoding="UTF-8"?>
<svg xmlns="http://www.w3.org/2000/svg" xmlns:xlink="http://www.w3.org/1999/xlink" width="1125pt" height="1124.99995pt" viewBox="0 0 1125 1124.99995" version="1.2">
<defs>
<clipPath id="clip1">
  <path d="M 132.75 132 L 607 132 L 607 582 L 132.75 582 Z M 132.75 132 "/>
</clipPath>
<clipPath id="clip2">
  <path d="M 518 545 L 992.25 545 L 992.25 995 L 518 995 Z M 518 545 "/>
</clipPath>
</defs>
<g id="surface1">
<path style=" stroke:none;fill-rule:nonzero;fill:rgb(45.098877%,45.098877%,45.098877%);fill-opacity:1;" d="M 231.792969 627.042969 L 313.003906 710.945312 L 684.71875 356.902344 L 456.949219 351.640625 L 455.503906 405.058594 C 455.46875 406.308594 455.304688 407.542969 455.011719 408.757812 C 454.71875 409.976562 454.304688 411.148438 453.769531 412.277344 C 453.234375 413.410156 452.589844 414.472656 451.832031 415.46875 C 451.074219 416.464844 450.222656 417.371094 449.277344 418.191406 Z M 231.792969 627.042969 "/>
<path style=" stroke:none;fill-rule:nonzero;fill:rgb(45.098877%,45.098877%,45.098877%);fill-opacity:1;" d="M 441.046875 770.265625 L 668.851562 774.644531 L 670.339844 722.03125 C 670.324219 719.667969 670.714844 717.378906 671.507812 715.15625 C 672.300781 712.933594 673.453125 710.914062 674.957031 709.097656 L 893.847656 500.566406 L 812.71875 415.378906 Z M 441.046875 770.265625 "/>
<g clip-path="url(#clip1)" clip-rule="nonzero">
<path style=" stroke:none;fill-rule:nonzero;fill:rgb(45.098877%,45.098877%,45.098877%);fill-opacity:1;" d="M 167.332031 581.859375 L 132.148438 581.859375 L 132.148438 563.625 C 132.144531 556.585938 132.3125 549.550781 132.652344 542.519531 C 132.992188 535.488281 133.503906 528.46875 134.1875 521.460938 C 134.871094 514.457031 135.726562 507.46875 136.753906 500.507812 C 137.78125 493.542969 138.980469 486.605469 140.347656 479.699219 C 141.710938 472.796875 143.246094 465.925781 144.953125 459.097656 C 146.65625 452.265625 148.523438 445.480469 150.5625 438.742188 C 152.597656 432.003906 154.796875 425.320312 157.160156 418.691406 C 159.527344 412.058594 162.050781 405.488281 164.738281 398.984375 C 167.421875 392.476562 170.265625 386.039062 173.269531 379.671875 C 176.269531 373.304688 179.425781 367.011719 182.734375 360.800781 C 186.046875 354.585938 189.503906 348.460938 193.117188 342.417969 C 196.726562 336.371094 200.484375 330.421875 204.386719 324.5625 C 208.289062 318.703125 212.332031 312.945312 216.515625 307.28125 C 220.699219 301.621094 225.019531 296.066406 229.476562 290.617188 C 233.933594 285.167969 238.523438 279.832031 243.242188 274.609375 C 247.960938 269.386719 252.804688 264.28125 257.773438 259.292969 C 262.742188 254.304688 267.828125 249.445312 273.035156 244.707031 C 278.246094 239.96875 283.5625 235.363281 288.996094 230.886719 C 294.429688 226.410156 299.96875 222.070312 305.617188 217.867188 C 311.261719 213.660156 317.007812 209.597656 322.851562 205.675781 C 328.699219 201.75 334.636719 197.972656 340.664062 194.34375 C 346.695312 190.710938 352.8125 187.226562 359.011719 183.894531 C 365.214844 180.5625 371.492188 177.386719 377.851562 174.363281 C 384.207031 171.335938 390.632812 168.472656 397.132812 165.761719 C 403.628906 163.054688 410.1875 160.503906 416.8125 158.117188 C 423.433594 155.730469 430.109375 153.507812 436.839844 151.445312 C 443.574219 149.386719 450.351562 147.492188 457.175781 145.765625 C 464 144.035156 470.863281 142.476562 477.761719 141.085938 C 484.664062 139.695312 491.59375 138.472656 498.554688 137.421875 C 505.515625 136.367188 512.496094 135.488281 519.5 134.78125 C 526.503906 134.070312 533.523438 133.53125 540.550781 133.167969 C 547.582031 132.800781 554.617188 132.609375 561.65625 132.589844 L 606.277344 132.589844 L 486.1875 252.117188 L 461.449219 226.570312 L 515.75 171.144531 C 509.8125 171.859375 503.898438 172.707031 498 173.6875 C 492.101562 174.667969 486.230469 175.785156 480.382812 177.03125 C 474.535156 178.277344 468.722656 179.65625 462.9375 181.167969 C 457.152344 182.679688 451.40625 184.320312 445.695312 186.09375 C 439.984375 187.863281 434.320312 189.765625 428.695312 191.792969 C 423.070312 193.820312 417.496094 195.976562 411.96875 198.257812 C 406.445312 200.539062 400.972656 202.945312 395.554688 205.472656 C 390.136719 208.003906 384.78125 210.652344 379.484375 213.425781 C 374.1875 216.199219 368.957031 219.089844 363.789062 222.097656 C 358.625 225.105469 353.527344 228.230469 348.503906 231.472656 C 343.480469 234.710938 338.53125 238.066406 333.660156 241.53125 C 328.789062 244.992188 323.996094 248.566406 319.285156 252.25 C 314.574219 255.929688 309.953125 259.71875 305.414062 263.609375 C 300.875 267.5 296.425781 271.492188 292.066406 275.585938 C 287.710938 279.679688 283.449219 283.867188 279.28125 288.152344 C 275.113281 292.441406 271.042969 296.820312 267.074219 301.289062 C 263.105469 305.761719 259.238281 310.320312 255.476562 314.964844 C 251.714844 319.609375 248.058594 324.339844 244.511719 329.152344 C 240.960938 333.960938 237.523438 338.851562 234.199219 343.820312 C 230.871094 348.785156 227.660156 353.828125 224.5625 358.941406 C 221.464844 364.054688 218.480469 369.234375 215.617188 374.480469 C 212.753906 379.730469 210.011719 385.039062 207.390625 390.414062 C 204.765625 395.785156 202.269531 401.214844 199.890625 406.699219 C 197.515625 412.1875 195.265625 417.722656 193.140625 423.3125 C 191.011719 428.898438 189.015625 434.53125 187.144531 440.210938 C 185.273438 445.890625 183.535156 451.605469 181.925781 457.363281 C 180.3125 463.121094 178.832031 468.914062 177.484375 474.738281 C 176.136719 480.5625 174.921875 486.414062 173.835938 492.292969 C 172.753906 498.171875 171.804688 504.074219 170.988281 509.996094 C 170.175781 515.917969 169.492188 521.855469 168.945312 527.808594 C 168.398438 533.765625 167.988281 539.726562 167.710938 545.699219 C 167.4375 551.671875 167.296875 557.644531 167.289062 563.625 Z M 167.332031 581.859375 "/>
</g>
<g clip-path="url(#clip2)" clip-rule="nonzero">
<path style=" stroke:none;fill-rule:nonzero;fill:rgb(45.098877%,45.098877%,45.098877%);fill-opacity:1;" d="M 561.65625 994.578125 L 518.519531 994.578125 L 639.011719 874.691406 L 663.589844 901.398438 L 609.25 955.140625 C 615.179688 954.449219 621.089844 953.625 626.984375 952.664062 C 632.875 951.703125 638.742188 950.613281 644.585938 949.382812 C 650.429688 948.15625 656.242188 946.796875 662.019531 945.308594 C 667.800781 943.816406 673.546875 942.191406 679.253906 940.441406 C 684.960938 938.6875 690.625 936.804688 696.246094 934.792969 C 701.867188 932.78125 707.4375 930.644531 712.960938 928.378906 C 718.484375 926.113281 723.953125 923.726562 729.371094 921.210938 C 734.785156 918.695312 740.140625 916.0625 745.433594 913.304688 C 750.730469 910.542969 755.957031 907.667969 761.121094 904.671875 C 766.285156 901.675781 771.378906 898.5625 776.398438 895.335938 C 781.421875 892.105469 786.367188 888.765625 791.238281 885.3125 C 796.109375 881.859375 800.898438 878.296875 805.605469 874.625 C 810.3125 870.953125 814.933594 867.175781 819.46875 863.292969 C 824.003906 859.414062 828.449219 855.429688 832.804688 851.34375 C 837.15625 847.261719 841.414062 843.078125 845.578125 838.800781 C 849.742188 834.523438 853.808594 830.152344 857.773438 825.6875 C 861.734375 821.222656 865.597656 816.671875 869.355469 812.03125 C 873.109375 807.394531 876.761719 802.671875 880.304688 797.863281 C 883.84375 793.058594 887.277344 788.175781 890.59375 783.214844 C 893.914062 778.25 897.121094 773.214844 900.210938 768.109375 C 903.300781 763 906.273438 757.824219 909.128906 752.582031 C 911.980469 747.339844 914.714844 742.03125 917.328125 736.664062 C 919.941406 731.296875 922.429688 725.871094 924.796875 720.390625 C 927.164062 714.910156 929.402344 709.378906 931.515625 703.792969 C 933.628906 698.210938 935.617188 692.582031 937.472656 686.910156 C 939.332031 681.234375 941.058594 675.523438 942.65625 669.769531 C 944.25 664.015625 945.71875 658.230469 947.050781 652.410156 C 948.382812 646.59375 949.585938 640.746094 950.652344 634.871094 C 951.71875 629 952.652344 623.101562 953.453125 617.1875 C 954.25 611.269531 954.914062 605.339844 955.441406 599.394531 C 955.972656 593.445312 956.363281 587.492188 956.621094 581.527344 C 956.878906 575.5625 957 569.59375 956.984375 563.625 L 956.984375 545.390625 L 993.496094 545.390625 L 993.496094 563.625 C 993.488281 570.683594 993.304688 577.738281 992.949219 584.789062 C 992.59375 591.839844 992.066406 598.878906 991.367188 605.902344 C 990.667969 612.929688 989.792969 619.933594 988.75 626.914062 C 987.707031 633.898438 986.492188 640.847656 985.105469 647.773438 C 983.722656 654.695312 982.167969 661.578125 980.441406 668.425781 C 978.71875 675.269531 976.828125 682.070312 974.773438 688.824219 C 972.714844 695.578125 970.496094 702.277344 968.109375 708.921875 C 965.722656 715.566406 963.175781 722.148438 960.464844 728.667969 C 957.757812 735.1875 954.890625 741.636719 951.863281 748.015625 C 948.839844 754.390625 945.660156 760.691406 942.324219 766.914062 C 938.988281 773.136719 935.503906 779.273438 931.867188 785.328125 C 928.230469 791.378906 924.449219 797.335938 920.519531 803.203125 C 916.59375 809.066406 912.523438 814.832031 908.3125 820.5 C 904.101562 826.164062 899.753906 831.726562 895.269531 837.179688 C 890.78125 842.628906 886.167969 847.96875 881.421875 853.195312 C 876.675781 858.421875 871.804688 863.527344 866.804688 868.515625 C 861.808594 873.503906 856.691406 878.363281 851.457031 883.097656 C 846.222656 887.835938 840.871094 892.4375 835.410156 896.914062 C 829.949219 901.386719 824.378906 905.722656 818.707031 909.921875 C 813.03125 914.121094 807.257812 918.179688 801.382812 922.097656 C 795.507812 926.011719 789.542969 929.78125 783.484375 933.40625 C 777.425781 937.03125 771.28125 940.503906 765.050781 943.824219 C 758.824219 947.148438 752.515625 950.3125 746.128906 953.328125 C 739.746094 956.339844 733.289062 959.191406 726.765625 961.890625 C 720.242188 964.585938 713.652344 967.117188 707.003906 969.492188 C 700.355469 971.863281 693.652344 974.070312 686.894531 976.113281 C 680.136719 978.15625 673.332031 980.035156 666.484375 981.742188 C 659.632812 983.453125 652.746094 984.992188 645.820312 986.363281 C 638.894531 987.734375 631.941406 988.933594 624.957031 989.964844 C 617.972656 990.996094 610.964844 991.851562 603.941406 992.539062 C 596.914062 993.222656 589.875 993.738281 582.824219 994.078125 C 575.773438 994.417969 568.714844 994.585938 561.65625 994.578125 Z M 561.65625 994.578125 "/>
</g>
</g>
</svg>
